<svg xmlns="http://www.w3.org/2000/svg" width="1000" height="1200" viewBox="0 0 1000 1200">
  <defs>
    <filter id="shadow" x="-30%" y="-30%" width="160%" height="180%"><feDropShadow dx="0" dy="12" stdDeviation="18" flood-color="#17332b" flood-opacity=".16"/></filter>
    <linearGradient id="bg" x1="0" y1="0" x2="1" y2="1"><stop stop-color="#edf6f2"/><stop offset="1" stop-color="#e9eef7"/></linearGradient>
    <clipPath id="screen"><rect x="256" y="103" width="488" height="976" rx="36"/></clipPath>
  </defs>
  <rect width="1000" height="1200" fill="url(#bg)"/>
  <text x="76" y="56" font-family="sans-serif" font-size="30" font-weight="700" fill="#17211f">位置上下文搜索</text>
  <text x="76" y="88" font-family="sans-serif" font-size="14" fill="#687872">独占搜索任务层 · 结果适配软键盘 · 搜索期间隐藏全局底栏</text>
  <rect x="229" y="76" width="542" height="1030" rx="64" fill="#101d18" filter="url(#shadow)"/>
  <rect x="256" y="103" width="488" height="976" rx="36" fill="#f4f7fb"/>
  <rect x="423" y="89" width="154" height="24" rx="12" fill="#07110e"/>
  <g clip-path="url(#screen)" font-family="sans-serif">
    <rect x="276" y="133" width="448" height="68" rx="14" fill="#fff" filter="url(#shadow)"/>
    <circle cx="306" cy="167" r="10" fill="none" stroke="#1769e0" stroke-width="2"/><path d="M313 174l9 9" stroke="#1769e0" stroke-width="2"/>
    <text x="337" y="173" font-size="16" fill="#17211f">西湖</text>
    <text x="688" y="173" text-anchor="end" font-size="13" font-weight="700" fill="#1769e0">搜索</text>

    <rect x="276" y="220" width="448" height="783" rx="14" fill="#fff" filter="url(#shadow)"/>
    <text x="298" y="253" font-size="12" font-weight="700" fill="#53615d">公交线路 · 杭州市</text>
    <rect x="292" y="270" width="416" height="104" rx="8" fill="#edf5ff"/>
    <text x="310" y="299" font-size="17" font-weight="700" fill="#17211f">西湖环线</text>
    <text x="680" y="299" text-anchor="end" font-size="13" font-weight="700" fill="#1769e0">¥2</text>
    <text x="310" y="327" font-size="13" fill="#53615d">少年宫 → 动物园</text>
    <text x="310" y="351" font-size="11" fill="#7a8582">断桥 · 苏堤 · 花港观鱼 · 12 个站点</text>
    <rect x="292" y="386" width="416" height="88" rx="8" fill="#f5f7fa"/>
    <text x="310" y="415" font-size="16" font-weight="700" fill="#17211f">西湖外环线</text>
    <text x="310" y="442" font-size="12" fill="#53615d">黄龙公交站 → 吴山广场 · 18 个站点</text>

    <line x1="292" y1="500" x2="708" y2="500" stroke="#e2e8e5"/>
    <text x="298" y="532" font-size="12" font-weight="700" fill="#53615d">地点 · 按距离排序</text>
    <g>
      <text x="310" y="574" font-size="17" font-weight="700" fill="#17211f">西湖风景名胜区</text><text x="684" y="574" text-anchor="end" font-size="12" font-weight="700" fill="#1769e0">2.4 公里</text>
      <text x="310" y="600" font-size="12" fill="#697572">杭州市 · 西湖区 · 龙井路 1 号</text><line x1="310" y1="622" x2="690" y2="622" stroke="#eef2f0"/>
      <text x="310" y="660" font-size="17" font-weight="700" fill="#17211f">西湖文化广场</text><text x="684" y="660" text-anchor="end" font-size="12" font-weight="700" fill="#1769e0">3.1 公里</text>
      <text x="310" y="686" font-size="12" fill="#697572">杭州市 · 拱墅区 · 环城北路</text><line x1="310" y1="708" x2="690" y2="708" stroke="#eef2f0"/>
      <text x="310" y="746" font-size="17" font-weight="700" fill="#17211f">西湖银泰城</text><text x="684" y="746" text-anchor="end" font-size="12" font-weight="700" fill="#1769e0">4.8 公里</text>
      <text x="310" y="772" font-size="12" fill="#697572">杭州市 · 上城区 · 延安路</text>
    </g>

    <rect x="292" y="823" width="416" height="104" rx="8" fill="#eaf5ef"/>
    <text x="310" y="854" font-size="13" font-weight="700" fill="#1769e0">搜索上下文</text>
    <text x="310" y="881" font-size="11" fill="#53615d">已定位时按当前位置计算距离</text>
    <text x="310" y="903" font-size="11" fill="#53615d">结果列表填满键盘上方可用空间</text>
  </g>
  <circle cx="500" cy="1092" r="4" fill="#30433c"/>
  <g font-family="sans-serif" text-anchor="middle"><text x="250" y="1153" font-size="14" font-weight="700" fill="#17211f">城市结果更准确</text><text x="500" y="1153" font-size="14" font-weight="700" fill="#17211f">公交与地点分区</text><text x="750" y="1153" font-size="14" font-weight="700" fill="#17211f">距离排序透明</text></g>
</svg>
