<svg xmlns="http://www.w3.org/2000/svg" width="1000" height="760" viewBox="0 0 1000 760">
  <defs>
    <filter id="shadow" x="-30%" y="-30%" width="160%" height="180%"><feDropShadow dx="0" dy="12" stdDeviation="18" flood-color="#18312b" flood-opacity=".2"/></filter>
    <filter id="soft" x="-30%" y="-30%" width="160%" height="180%"><feDropShadow dx="0" dy="5" stdDeviation="8" flood-color="#18312b" flood-opacity=".12"/></filter>
    <clipPath id="screen"><rect x="280" y="110" width="440" height="568" rx="32"/></clipPath>
  </defs>
  <rect width="1000" height="760" fill="#f4f7fb"/>
  <path d="M0 0h1000v52C820 91 626 21 430 55C242 88 105 73 0 43z" fill="#dce8f8"/>
  <text x="58" y="54" font-family="sans-serif" font-size="28" font-weight="700" fill="#172033">常用地点与收藏分组</text>
  <text x="58" y="82" font-family="sans-serif" font-size="14" fill="#66758b">家与公司各保留一个地点 · 收藏夹可持续积累 · 点击地点直接规划</text>

  <rect x="250" y="82" width="500" height="624" rx="56" fill="#13211e" filter="url(#shadow)"/>
  <rect x="280" y="110" width="440" height="568" rx="32" fill="#f4f7fb"/>
  <rect x="430" y="94" width="140" height="22" rx="11" fill="#07110e"/>

  <g clip-path="url(#screen)" font-family="sans-serif">
    <rect x="280" y="110" width="440" height="92" fill="#fff"/>
    <text x="304" y="151" font-size="25" font-weight="700" fill="#17211f">我的</text>
    <g transform="translate(304 164)">
      <rect width="114" height="36" rx="8" fill="#1769e0"/><text x="57" y="23" text-anchor="middle" font-size="12" font-weight="700" fill="#fff">收藏</text>
      <rect x="121" width="134" height="36" rx="8" fill="#fff" stroke="#b7c4bf"/><text x="188" y="23" text-anchor="middle" font-size="12" fill="#45534f">离线地图</text>
      <rect x="262" width="114" height="36" rx="8" fill="#fff" stroke="#b7c4bf"/><text x="319" y="23" text-anchor="middle" font-size="12" fill="#45534f">设置</text>
    </g>

    <text x="304" y="234" font-size="14" font-weight="700" fill="#465a73">家</text>
    <g transform="translate(304 248)">
      <rect width="392" height="96" rx="8" fill="#fff" filter="url(#soft)"/>
      <circle cx="24" cy="28" r="13" fill="#e5f0ff"/><path d="M16 28l8-7 8 7v10h-6v-6h-4v6h-6z" fill="#1769e0"/>
      <text x="48" y="27" font-size="14" font-weight="700" fill="#17211f">湖滨花园</text>
      <text x="48" y="47" font-size="11" fill="#68736f">杭州市上城区平海路</text>
      <text x="14" y="80" font-size="11" fill="#9aa5a1">家</text>
      <text x="52" y="80" font-size="11" fill="#1769e0">公司</text>
      <text x="96" y="80" font-size="11" fill="#1769e0">收藏夹</text>
      <text x="368" y="57" text-anchor="end" font-size="12" fill="#b43e36">移除</text>
    </g>

    <text x="304" y="376" font-size="14" font-weight="700" fill="#465a73">公司</text>
    <g transform="translate(304 390)">
      <rect width="392" height="96" rx="8" fill="#fff" filter="url(#soft)"/>
      <circle cx="24" cy="28" r="13" fill="#e8f4ed"/><path d="M18 38V20h12v18m-9-13h2m3 0h2m-7 5h2m3 0h2" fill="none" stroke="#247a50" stroke-width="2"/>
      <text x="48" y="27" font-size="14" font-weight="700" fill="#17211f">未来科技城</text>
      <text x="48" y="47" font-size="11" fill="#68736f">杭州市余杭区文一西路</text>
      <text x="14" y="80" font-size="11" fill="#1769e0">家</text>
      <text x="52" y="80" font-size="11" fill="#9aa5a1">公司</text>
      <text x="96" y="80" font-size="11" fill="#1769e0">收藏夹</text>
      <text x="368" y="57" text-anchor="end" font-size="12" fill="#b43e36">移除</text>
    </g>

    <text x="304" y="518" font-size="14" font-weight="700" fill="#465a73">收藏夹</text>
    <g transform="translate(304 532)">
      <rect width="392" height="82" rx="8" fill="#fff" filter="url(#soft)"/>
      <circle cx="24" cy="28" r="13" fill="#fff1dc"/><path d="M24 17c-5 0-9 4-9 9 0 7 9 15 9 15s9-8 9-15c0-5-4-9-9-9zm0 6a3 3 0 110 6 3 3 0 010-6z" fill="#b56b18"/>
      <text x="48" y="27" font-size="14" font-weight="700" fill="#17211f">西湖风景名胜区</text>
      <text x="48" y="47" font-size="11" fill="#68736f">龙井路 1 号</text>
      <text x="368" y="38" text-anchor="end" font-size="12" font-weight="700" fill="#1769e0">去这里</text>
      <text x="14" y="70" font-size="10" fill="#68736f">整行点击进入路线规划</text>
    </g>

    <rect x="280" y="640" width="440" height="38" fill="#fff"/>
    <text x="335" y="664" text-anchor="middle" font-size="11" fill="#66758b">地图</text>
    <text x="445" y="664" text-anchor="middle" font-size="11" fill="#66758b">路线</text>
    <text x="555" y="664" text-anchor="middle" font-size="11" fill="#66758b">行程</text>
    <text x="665" y="664" text-anchor="middle" font-size="11" font-weight="700" fill="#1769e0">我的</text>
  </g>
  <text x="500" y="736" text-anchor="middle" font-family="sans-serif" font-size="13" font-weight="700" fill="#17211f">旧收藏自动归入收藏夹，分组与地点仅保存在本机</text>
</svg>