<svg xmlns="http://www.w3.org/2000/svg" width="1400" height="820" viewBox="0 0 1400 820">
  <defs>
    <filter id="shadow" x="-30%" y="-30%" width="160%" height="180%"><feDropShadow dx="0" dy="10" stdDeviation="14" flood-color="#08111f" flood-opacity=".22"/></filter>
    <pattern id="map" width="150" height="110" patternUnits="userSpaceOnUse"><rect width="150" height="110" fill="#d8e2f0"/><path d="M-20 92C34 52 88 74 170 12M34-14C68 32 62 75 42 126" fill="none" stroke="#f7f9fc" stroke-width="10"/></pattern>
    <clipPath id="portrait"><rect x="70" y="150" width="320" height="480" rx="26"/></clipPath>
    <clipPath id="landscape"><rect x="474" y="190" width="640" height="320" rx="22"/></clipPath>
  </defs>
  <rect width="1400" height="820" fill="#f4f7fb"/>
  <text x="70" y="62" font-family="sans-serif" font-size="30" font-weight="700" fill="#172033">紧凑屏与大字体导航</text>
  <text x="70" y="94" font-family="sans-serif" font-size="14" fill="#66758b">短屏提示按优先级让位 · 路口图限制高度 · 关键区域保持不重叠</text>

  <rect x="48" y="128" width="364" height="524" rx="44" fill="#101927" filter="url(#shadow)"/>
  <rect x="70" y="150" width="320" height="480" rx="26" fill="url(#map)"/>
  <g clip-path="url(#portrait)" font-family="sans-serif">
    <path d="M125 655C148 566 207 518 234 432C261 345 314 294 411 236" fill="none" stroke="#33465e" stroke-width="46"/><path d="M125 655C148 566 207 518 234 432C261 345 314 294 411 236" fill="none" stroke="#1769e0" stroke-width="12"/>
    <rect x="80" y="163" width="300" height="230" rx="12" fill="#1a2b42"/>
    <text x="98" y="191" font-size="20" font-weight="700" fill="#fff">机场高速</text><text x="98" y="215" font-size="13" font-weight="700" fill="#8ec7ff">1.2 公里后 · 靠右行驶</text>
    <rect x="80" y="230" width="300" height="42" fill="#56343b"/><text x="96" y="248" font-size="11" font-weight="700" fill="#fff">前方道路封闭</text><text x="364" y="248" text-anchor="end" font-size="9" fill="#ffb4ab">1.8 公里</text><text x="96" y="264" font-size="8" fill="#b9cbe4">短屏仅显示最高优先级提示</text>
    <rect x="90" y="282" width="280" height="101" rx="6" fill="#20302a"/><path d="M108 370C151 341 181 310 219 294" fill="none" stroke="#1769e0" stroke-width="10"/><path d="M219 294C255 292 297 303 352 329" fill="none" stroke="#1769e0" stroke-width="10"/><path d="M219 294C247 319 267 345 286 376" fill="none" stroke="#52665e" stroke-width="10"/><text x="105" y="301" font-size="9" font-weight="700" fill="#b9cbe4">路口图默认展开</text>
    <rect x="82" y="544" width="296" height="72" rx="12" fill="#fff"/><text x="98" y="574" font-size="16" font-weight="700" fill="#1769e0">35 分钟</text><text x="360" y="574" text-anchor="end" font-size="12" font-weight="700" fill="#172033">剩余 34 公里</text><text x="98" y="598" font-size="9" fill="#66758b">顶部信息卡与底部状态卡保持分离</text>
  </g>
  <text x="230" y="690" text-anchor="middle" font-family="sans-serif" font-size="14" font-weight="700" fill="#172033">320 × 480 竖屏</text>

  <rect x="450" y="166" width="688" height="368" rx="42" fill="#101927" filter="url(#shadow)"/>
  <rect x="474" y="190" width="640" height="320" rx="22" fill="url(#map)"/>
  <g clip-path="url(#landscape)" font-family="sans-serif">
    <path d="M726 550C797 478 865 439 929 355C980 288 1054 248 1146 226" fill="none" stroke="#33465e" stroke-width="50"/><path d="M726 550C797 478 865 439 929 355C980 288 1054 248 1146 226" fill="none" stroke="#1769e0" stroke-width="12"/>
    <rect x="488" y="202" width="320" height="282" rx="12" fill="#1a2b42"/>
    <text x="506" y="232" font-size="21" font-weight="700" fill="#fff">机场高速</text><text x="506" y="255" font-size="13" font-weight="700" fill="#8ec7ff">1.2 公里后 · 靠右</text>
    <rect x="488" y="270" width="320" height="42" fill="#203b5e"/><text x="504" y="288" font-size="11" font-weight="700" fill="#fff">路线已更新</text><text x="792" y="288" text-anchor="end" font-size="9" fill="#8ec7ff">已避开拥堵</text><text x="504" y="304" font-size="8" fill="#b9cbe4">紧凑屏只保留必要路线事件</text>
    <rect x="498" y="322" width="300" height="106" rx="6" fill="#20302a"/><path d="M516 414C560 386 590 352 629 334" fill="none" stroke="#1769e0" stroke-width="10"/><path d="M629 334C670 330 722 344 782 374" fill="none" stroke="#1769e0" stroke-width="10"/><path d="M629 334C655 359 678 389 701 421" fill="none" stroke="#52665e" stroke-width="10"/>
    <line x1="488" y1="440" x2="808" y2="440" stroke="#5f8fc4"/><text x="528" y="464" font-size="10" font-weight="700" fill="#fff">35 分</text><text x="620" y="464" font-size="10" font-weight="700" fill="#fff">34 km</text><text x="710" y="464" font-size="10" font-weight="700" fill="#fff">6 灯</text><text x="784" y="464" text-anchor="end" font-size="10" font-weight="700" fill="#fff">18:42</text>
    <rect x="844" y="212" width="78" height="30" rx="8" fill="#27405f"/><text x="883" y="232" text-anchor="middle" font-size="10" font-weight="700" fill="#8ec7ff">GPS 11</text>
  </g>
  <text x="794" y="570" text-anchor="middle" font-family="sans-serif" font-size="14" font-weight="700" fill="#172033">640 × 320 横屏</text>

  <rect x="1175" y="150" width="170" height="480" rx="28" fill="#eef3f9" stroke="#d4deeb"/>
  <text x="1260" y="190" text-anchor="middle" font-family="sans-serif" font-size="13" font-weight="700" fill="#1769e0">1.3× 字体</text>
  <rect x="1188" y="212" width="144" height="188" rx="10" fill="#1a2b42"/>
  <text x="1200" y="248" font-family="sans-serif" font-size="21" font-weight="700" fill="#fff">机场高速</text><text x="1200" y="278" font-family="sans-serif" font-size="15" font-weight="700" fill="#8ec7ff">1.2 公里后</text><text x="1200" y="306" font-family="sans-serif" font-size="14" font-weight="700" fill="#fff">靠右行驶</text><rect x="1188" y="326" width="144" height="62" fill="#56343b"/><text x="1200" y="350" font-family="sans-serif" font-size="13" font-weight="700" fill="#fff">道路封闭</text><text x="1200" y="374" font-family="sans-serif" font-size="11" fill="#ffdad6">内容自动换行</text>
  <rect x="1188" y="534" width="144" height="76" rx="10" fill="#fff"/><text x="1200" y="564" font-family="sans-serif" font-size="17" font-weight="700" fill="#1769e0">35 分钟</text><text x="1200" y="590" font-family="sans-serif" font-size="11" fill="#66758b">状态区保持可见</text>
  <text x="1260" y="690" text-anchor="middle" font-family="sans-serif" font-size="14" font-weight="700" fill="#172033">大字体不越界</text>
</svg>