<svg xmlns="http://www.w3.org/2000/svg" width="1000" height="1200" viewBox="0 0 1000 1200">
  <defs>
    <filter id="shadow" x="-30%" y="-30%" width="160%" height="180%"><feDropShadow dx="0" dy="12" stdDeviation="18" flood-color="#07110e" flood-opacity=".25"/></filter>
    <filter id="soft" x="-30%" y="-30%" width="160%" height="180%"><feDropShadow dx="0" dy="5" stdDeviation="8" flood-color="#07110e" flood-opacity=".2"/></filter>
    <linearGradient id="map" x1="0" y1="0" x2="1" y2="1"><stop stop-color="#33473f"/><stop offset="1" stop-color="#182923"/></linearGradient>
    <pattern id="roads" width="190" height="150" patternUnits="userSpaceOnUse"><rect width="190" height="150" fill="url(#map)"/><path d="M-24 124C38 73 97 92 218 23M45-18C76 41 75 92 50 171M132-18C121 41 144 103 216 135" fill="none" stroke="#52665e" stroke-width="8"/><path d="M-24 124C38 73 97 92 218 23M45-18C76 41 75 92 50 171M132-18C121 41 144 103 216 135" fill="none" stroke="#82958d" stroke-width="1"/></pattern>
    <clipPath id="screen"><rect x="256" y="103" width="488" height="976" rx="36"/></clipPath>
  </defs>
  <rect width="1000" height="1200" fill="#f3f7f5"/>
  <text x="80" y="54" font-family="sans-serif" font-size="30" font-weight="700" fill="#17211f">竖屏导航</text>
  <text x="238" y="54" font-family="sans-serif" font-size="14" fill="#687872">核心指令优先 · 放大图出现时压缩为一行 · 浮层互不遮挡</text>
  <rect x="229" y="76" width="542" height="1030" rx="64" fill="#101d18" filter="url(#shadow)"/>
  <rect x="256" y="103" width="488" height="976" rx="36" fill="url(#roads)"/>
  <rect x="423" y="89" width="154" height="24" rx="12" fill="#07110e"/>
  <g clip-path="url(#screen)">
    <path d="M347 1125C355 1002 413 935 459 844C503 757 469 668 523 578C581 481 673 414 764 332" fill="none" stroke="#233b32" stroke-width="62" stroke-linecap="round"/>
    <path d="M347 1125C355 1002 413 935 459 844C503 757 469 668 523 578C581 481 673 414 764 332" fill="none" stroke="#1769e0" stroke-width="15" stroke-linecap="round"/>
    <path d="M258 670C356 644 425 602 523 578" fill="none" stroke="#61766d" stroke-width="11"/>
    <path d="M523 578C588 606 664 668 756 751" fill="none" stroke="#61766d" stroke-width="11"/>
    <text x="588" y="497" transform="rotate(-42 588 497)" font-family="sans-serif" font-size="12" fill="#b4c3be">秋石高架路</text>

    <rect x="270" y="124" width="460" height="286" rx="16" fill="#1a2b42" filter="url(#shadow)"/>
    <rect x="286" y="141" width="54" height="54" rx="9" fill="#263f62"/>
    <path d="M303 184v-22c0-9 7-15 16-15h12M326 140l12 10-12 10" fill="none" stroke="#8ec7ff" stroke-width="6" stroke-linecap="round" stroke-linejoin="round"/>
    <text x="356" y="175" font-family="sans-serif" font-size="20" font-weight="700" fill="#fff">1.2 公里后 机场高速</text>

    <rect x="644" y="126" width="68" height="28" rx="7" fill="#263f62"/>
    <text x="678" y="145" text-anchor="middle" font-family="sans-serif" font-size="10" font-weight="700" fill="#8ec7ff">GPS 12</text>

    <line x1="270" y1="210" x2="730" y2="210" stroke="#5f8fc4"/>
    <rect x="282" y="222" width="436" height="176" rx="7" fill="#20302a"/>
    <path d="M306 382C365 351 399 320 438 280" fill="none" stroke="#475b52" stroke-width="42"/><path d="M306 382C365 351 399 320 438 280" fill="none" stroke="#1769e0" stroke-width="12"/><path d="M438 280C484 258 539 260 625 260" fill="none" stroke="#1769e0" stroke-width="12"/><path d="M438 280C481 305 518 344 558 385" fill="none" stroke="#52665e" stroke-width="12"/><path d="M427 289l12-21 21 10" fill="none" stroke="#fff" stroke-width="5" stroke-linecap="round" stroke-linejoin="round"/>
    <text x="298" y="244" font-family="sans-serif" font-size="11" font-weight="700" fill="#b9cbe4">路口放大图 · 靠右</text>
    <rect x="698" y="438" width="16" height="200" rx="8" fill="#fff" opacity=".9"/><rect x="701" y="473" width="10" height="86" rx="5" fill="#24a866"/><rect x="701" y="559" width="10" height="38" rx="5" fill="#f2b134"/>

    <circle cx="518" cy="658" r="17" fill="#fff" stroke="#1769e0" stroke-width="6"/>
    <path d="M518 607l16 60-16-10-16 10z" fill="#1769e0"/>
    <rect x="354" y="806" width="292" height="40" rx="9" fill="#fff" filter="url(#soft)"/>
    <text x="500" y="831" text-anchor="middle" font-family="sans-serif" font-size="14" font-weight="700" fill="#263832">秋石高架路</text>

    <rect x="272" y="887" width="456" height="112" rx="17" fill="#fff" filter="url(#shadow)"/>
    <g font-family="sans-serif"><text x="291" y="927" font-size="19" font-weight="700" fill="#1769e0">35 分钟</text><text x="523" y="926" font-size="15" font-weight="700" fill="#172033">剩余 34.0 公里</text><text x="291" y="959" font-size="11" fill="#66758b">预计 18:42 到达 · 6 个红绿灯</text></g>
    <text x="500" y="983" text-anchor="middle" font-family="sans-serif" font-size="10" fill="#7b8783">拖动地图后显示跟随、设置与结束</text>

    <rect x="494" y="1033" width="12" height="4" rx="2" fill="#8ec7ff"/>
  </g>
  <circle cx="500" cy="1092" r="4" fill="#30433c"/>
  <g font-family="sans-serif" text-anchor="middle"><text x="246" y="1153" font-size="14" font-weight="700" fill="#17211f">默认隐藏操作</text><text x="500" y="1153" font-size="14" font-weight="700" fill="#17211f">放大图优先展示</text><text x="754" y="1153" font-size="14" font-weight="700" fill="#17211f">总览条独立避让</text></g>
</svg>