<svg xmlns="http://www.w3.org/2000/svg" width="1500" height="900" viewBox="0 0 1500 900">
  <defs>
    <filter id="shadow" x="-30%" y="-30%" width="160%" height="180%"><feDropShadow dx="0" dy="12" stdDeviation="18" flood-color="#07110e" flood-opacity=".25"/></filter>
    <filter id="soft" x="-30%" y="-30%" width="160%" height="180%"><feDropShadow dx="0" dy="5" stdDeviation="8" flood-color="#07110e" flood-opacity=".2"/></filter>
    <linearGradient id="map" x1="0" y1="0" x2="1" y2="1"><stop stop-color="#33473f"/><stop offset="1" stop-color="#182923"/></linearGradient>
    <pattern id="roads" width="210" height="145" patternUnits="userSpaceOnUse"><rect width="210" height="145" fill="url(#map)"/><path d="M-30 108C35 65 97 85 235 18M54-18C78 37 92 88 68 164M147-20C130 35 149 94 229 132" fill="none" stroke="#52665e" stroke-width="7"/><path d="M-30 108C35 65 97 85 235 18M54-18C78 37 92 88 68 164M147-20C130 35 149 94 229 132" fill="none" stroke="#82958d" stroke-width="1"/></pattern>
    <clipPath id="screen"><rect x="75" y="135" width="1350" height="620" rx="24"/></clipPath>
  </defs>
  <rect width="1500" height="900" fill="#f3f7f5"/><text x="75" y="64" font-family="sans-serif" font-size="30" font-weight="700" fill="#17211f">横屏导航 · 路口放大图</text><text x="75" y="96" font-family="sans-serif" font-size="14" fill="#687872">路口图直接展示 · 实时前方路况 · 路口图出现时沿途设施临时收起</text>
  <rect x="42" y="102" width="1416" height="686" rx="48" fill="#101d18" filter="url(#shadow)"/><rect x="75" y="135" width="1350" height="620" rx="24" fill="url(#roads)"/>
  <g clip-path="url(#screen)">
    <path d="M330 790C502 680 604 634 728 563C853 492 913 392 989 302C1084 191 1220 156 1482 103" fill="none" stroke="#233b32" stroke-width="70" stroke-linecap="round"/><path d="M330 790C502 680 604 634 728 563C853 492 913 392 989 302C1084 191 1220 156 1482 103" fill="none" stroke="#1769e0" stroke-width="16" stroke-linecap="round"/><path d="M848 494C943 505 1033 568 1141 682" fill="none" stroke="#61766d" stroke-width="12"/><text x="1125" y="568" transform="rotate(39 1125 568)" font-family="sans-serif" font-size="14" fill="#aebeb8">钱塘快速路</text>

    <rect x="94" y="154" width="490" height="468" rx="14" fill="#1a2b42" filter="url(#shadow)"/>
    <rect x="112" y="172" width="86" height="82" rx="9" fill="#263f62"/><path d="M141 238v-35c0-14 10-22 24-22h18M175 167l17 14-17 14" fill="none" stroke="#8ec7ff" stroke-width="8" stroke-linecap="round" stroke-linejoin="round"/>
    <text x="220" y="200" font-family="sans-serif" font-size="28" font-weight="700" fill="#fff">机场高速</text><text x="220" y="231" font-family="sans-serif" font-size="18" font-weight="700" fill="#8ec7ff">1.2 公里后</text><text x="340" y="231" font-family="sans-serif" font-size="18" font-weight="700" fill="#fff">靠右行驶</text><text x="220" y="254" font-family="sans-serif" font-size="12" font-weight="700" fill="#8ec7ff">出口 萧山机场 · 靠右</text>
    <rect x="94" y="272" width="490" height="42" fill="#16273b"/><circle cx="113" cy="293" r="5" fill="#f07b32"/><text x="127" y="297" font-family="sans-serif" font-size="11" font-weight="700" fill="#fff">前方 1.4 公里 拥堵</text><text x="565" y="297" text-anchor="end" font-family="sans-serif" font-size="10" fill="#b9cbe4">影响 3.1 公里</text>
    <line x1="94" y1="314" x2="584" y2="314" stroke="#5f8fc4"/>
    <rect x="106" y="326" width="466" height="220" rx="7" fill="#20302a"/>
    <path d="M134 514C207 466 247 421 292 359" fill="none" stroke="#475b52" stroke-width="58"/><path d="M134 514C207 466 247 421 292 359" fill="none" stroke="#1769e0" stroke-width="15"/><path d="M292 359C328 318 377 307 445 307" fill="none" stroke="#1769e0" stroke-width="15"/><path d="M292 359C335 396 371 449 407 522" fill="none" stroke="#52665e" stroke-width="15"/><path d="M281 368l12-23 23 11" fill="none" stroke="#fff" stroke-width="5" stroke-linecap="round" stroke-linejoin="round"/><text x="124" y="310" font-family="sans-serif" font-size="12" font-weight="700" fill="#b9cbe4">路口放大图</text><rect x="493" y="296" width="62" height="25" rx="5" fill="#263f62"/><text x="524" y="313" text-anchor="middle" font-family="sans-serif" font-size="10" fill="#8ec7ff">靠右</text>
    <line x1="94" y1="558" x2="584" y2="558" stroke="#5f8fc4"/>
    <g font-family="sans-serif" text-anchor="middle"><text x="147" y="585" font-size="14" font-weight="700" fill="#fff">35 分</text><text x="147" y="603" font-size="9" fill="#9fb6af">时间</text><rect x="209" y="570" width="1" height="34" fill="#40574f"/><text x="267" y="585" font-size="14" font-weight="700" fill="#fff">34.0 km</text><text x="267" y="603" font-size="9" fill="#9fb6af">剩余</text><rect x="332" y="570" width="1" height="34" fill="#40574f"/><text x="386" y="585" font-size="14" font-weight="700" fill="#fff">6</text><text x="386" y="603" font-size="9" fill="#9fb6af">红绿灯</text><rect x="443" y="570" width="1" height="34" fill="#40574f"/><text x="506" y="585" font-size="14" font-weight="700" fill="#fff">18:42</text><text x="506" y="603" font-size="9" fill="#9fb6af">预计</text></g>

    <g transform="translate(500 -260)"><circle cx="136" cy="443" r="38" fill="#243832" filter="url(#soft)"/><text x="136" y="450" text-anchor="middle" font-family="sans-serif" font-size="25" font-weight="700" fill="#fff">82</text><text x="136" y="466" text-anchor="middle" font-family="sans-serif" font-size="9" fill="#aabbb5">km/h</text><circle cx="170" cy="411" r="21" fill="#fff" stroke="#d84b42" stroke-width="4"/><text x="170" y="417" text-anchor="middle" font-family="sans-serif" font-size="14" font-weight="700" fill="#202a26">100</text>
    <rect x="90" y="494" width="92" height="78" rx="10" fill="#1a2b42" stroke="#1769e0" stroke-width="2" filter="url(#soft)"/><text x="136" y="513" text-anchor="middle" font-family="sans-serif" font-size="9" fill="#8ec7ff">区间测速</text><text x="136" y="532" text-anchor="middle" font-family="sans-serif" font-size="14" font-weight="700" fill="#fff">78 km/h</text><text x="136" y="549" text-anchor="middle" font-family="sans-serif" font-size="8" fill="#b9cbe4">剩余 5.6 公里</text><text x="136" y="563" text-anchor="middle" font-family="sans-serif" font-size="8" fill="#b9cbe4">建议 72 km/h</text></g>
    <circle cx="860" cy="530" r="18" fill="#fff" stroke="#1769e0" stroke-width="6"/><path d="M860 476l17 64-17-10-17 10z" fill="#1769e0"/>
    <rect x="805" y="684" width="310" height="42" rx="9" fill="#f5f8f7" filter="url(#soft)"/><text x="960" y="710" text-anchor="middle" font-family="sans-serif" font-size="15" font-weight="700" fill="#263832">秋石高架路</text>
    <rect x="1335" y="151" width="65" height="30" rx="7" fill="#263f62"/><text x="1367" y="171" text-anchor="middle" font-family="sans-serif" font-size="11" font-weight="700" fill="#8ec7ff">GPS 12</text>
  </g>
  <circle cx="750" cy="775" r="4" fill="#30433c"/><g font-family="sans-serif" text-anchor="middle"><text x="255" y="842" font-size="15" font-weight="700" fill="#17211f">实时前方路况</text><text x="750" y="842" font-size="15" font-weight="700" fill="#17211f">路口图出现时设施让位</text><text x="1245" y="842" font-size="15" font-weight="700" fill="#17211f">地图保持宽阔可视</text></g>
</svg>