<svg xmlns="http://www.w3.org/2000/svg" width="1000" height="1200" viewBox="0 0 1000 1200">
  <defs>
    <filter id="shadow" x="-30%" y="-30%" width="160%" height="180%"><feDropShadow dx="0" dy="12" stdDeviation="18" flood-color="#07110e" flood-opacity=".25"/></filter>
    <filter id="soft" x="-30%" y="-30%" width="160%" height="180%"><feDropShadow dx="0" dy="5" stdDeviation="8" flood-color="#07110e" flood-opacity=".2"/></filter>
    <linearGradient id="map" x1="0" y1="0" x2="1" y2="1"><stop stop-color="#33473f"/><stop offset="1" stop-color="#182923"/></linearGradient>
    <pattern id="roads" width="190" height="150" patternUnits="userSpaceOnUse"><rect width="190" height="150" fill="url(#map)"/><path d="M-24 124C38 73 97 92 218 23M45-18C76 41 75 92 50 171M132-18C121 41 144 103 216 135" fill="none" stroke="#52665e" stroke-width="8"/><path d="M-24 124C38 73 97 92 218 23M45-18C76 41 75 92 50 171M132-18C121 41 144 103 216 135" fill="none" stroke="#82958d" stroke-width="1"/></pattern>
    <clipPath id="screen"><rect x="256" y="103" width="488" height="976" rx="36"/></clipPath>
  </defs>
  <rect width="1000" height="1200" fill="#f3f7f5"/>
  <text x="80" y="54" font-family="sans-serif" font-size="30" font-weight="700" fill="#17211f">竖屏导航</text>
  <text x="238" y="54" font-family="sans-serif" font-size="14" fill="#687872">转向信息与路口图一体呈现 · 路口图默认收起 · 拖图后才显示操作</text>
  <rect x="229" y="76" width="542" height="1030" rx="64" fill="#101d18" filter="url(#shadow)"/>
  <rect x="256" y="103" width="488" height="976" rx="36" fill="url(#roads)"/>
  <rect x="423" y="89" width="154" height="24" rx="12" fill="#07110e"/>
  <g clip-path="url(#screen)">
    <path d="M347 1125C355 1002 413 935 459 844C503 757 469 668 523 578C581 481 673 414 764 332" fill="none" stroke="#233b32" stroke-width="62" stroke-linecap="round"/>
    <path d="M347 1125C355 1002 413 935 459 844C503 757 469 668 523 578C581 481 673 414 764 332" fill="none" stroke="#1769e0" stroke-width="15" stroke-linecap="round"/>
    <path d="M258 670C356 644 425 602 523 578" fill="none" stroke="#61766d" stroke-width="11"/>
    <path d="M523 578C588 606 664 668 756 751" fill="none" stroke="#61766d" stroke-width="11"/>
    <text x="588" y="497" transform="rotate(-42 588 497)" font-family="sans-serif" font-size="12" fill="#b4c3be">秋石高架路</text>

    <rect x="270" y="124" width="460" height="226" rx="16" fill="#1a2b42" filter="url(#shadow)"/>
    <rect x="286" y="141" width="82" height="82" rx="10" fill="#263f62"/>
    <path d="M314 207v-34c0-14 10-22 23-22h18M347 139l17 14-17 14" fill="none" stroke="#8ec7ff" stroke-width="8" stroke-linecap="round" stroke-linejoin="round"/>
    <text x="386" y="171" font-family="sans-serif" font-size="25" font-weight="700" fill="#fff">机场高速</text>
    <text x="386" y="205" font-family="sans-serif" font-size="17" font-weight="700" fill="#8ec7ff">1.2 公里后</text>
    <text x="386" y="237" font-family="sans-serif" font-size="16" font-weight="700" fill="#fff">靠右行驶</text>
    <text x="386" y="261" font-family="sans-serif" font-size="12" font-weight="700" fill="#8ec7ff">出口 萧山机场 · 靠右</text>

    <rect x="644" y="126" width="68" height="28" rx="7" fill="#263f62"/>
    <text x="678" y="145" text-anchor="middle" font-family="sans-serif" font-size="10" font-weight="700" fill="#8ec7ff">GPS 12</text>

    <rect x="270" y="270" width="460" height="48" fill="#56343b"/>
    <text x="287" y="290" font-family="sans-serif" font-size="12" font-weight="700" fill="#fff">前方道路封闭</text>
    <text x="712" y="290" text-anchor="end" font-family="sans-serif" font-size="10" font-weight="700" fill="#ffb4ab">1.8 公里</text>
    <text x="287" y="307" font-family="sans-serif" font-size="9" fill="#b9cbe4">环城西路 · 临时施工</text>
    <line x1="270" y1="318" x2="730" y2="318" stroke="#5f8fc4"/>
    <text x="287" y="341" font-family="sans-serif" font-size="12" font-weight="700" fill="#b9cbe4">路口放大图</text>
    <text x="706" y="341" text-anchor="end" font-family="sans-serif" font-size="11" font-weight="700" fill="#8ec7ff">展开</text>

    <circle cx="314" cy="391" r="36" fill="#243832" filter="url(#soft)"/>
    <text x="314" y="397" text-anchor="middle" font-family="sans-serif" font-size="23" font-weight="700" fill="#fff">82</text>
    <text x="314" y="412" text-anchor="middle" font-family="sans-serif" font-size="8" fill="#aabbb5">km/h</text>
    <circle cx="345" cy="361" r="19" fill="#fff" stroke="#d84b42" stroke-width="4"/>
    <text x="345" y="367" text-anchor="middle" font-family="sans-serif" font-size="13" font-weight="700" fill="#202a26">100</text>
    <rect x="278" y="446" width="92" height="78" rx="10" fill="#1a2b42" stroke="#1769e0" stroke-width="2" filter="url(#soft)"/>
    <text x="324" y="465" text-anchor="middle" font-family="sans-serif" font-size="9" fill="#8ec7ff">区间测速</text>
    <text x="324" y="484" text-anchor="middle" font-family="sans-serif" font-size="14" font-weight="700" fill="#fff">78 km/h</text>
    <text x="324" y="501" text-anchor="middle" font-family="sans-serif" font-size="8" fill="#b9cbe4">剩余 5.6 公里</text>
    <text x="324" y="515" text-anchor="middle" font-family="sans-serif" font-size="8" fill="#b9cbe4">建议 72 km/h</text>

    <circle cx="518" cy="658" r="17" fill="#fff" stroke="#1769e0" stroke-width="6"/>
    <path d="M518 607l16 60-16-10-16 10z" fill="#1769e0"/>
    <rect x="354" y="786" width="292" height="40" rx="9" fill="#f5f8f7" filter="url(#soft)"/>
    <text x="500" y="811" text-anchor="middle" font-family="sans-serif" font-size="14" font-weight="700" fill="#263832">秋石高架路</text>

    <rect x="272" y="887" width="456" height="112" rx="17" fill="#fff" filter="url(#shadow)"/>
    <g font-family="sans-serif"><text x="291" y="927" font-size="19" font-weight="700" fill="#1769e0">35 分钟</text><text x="523" y="926" font-size="15" font-weight="700" fill="#172033">剩余 34.0 公里</text><text x="291" y="959" font-size="11" fill="#66758b">预计 18:42 到达 · 6 个红绿灯</text></g>
    <text x="500" y="983" text-anchor="middle" font-family="sans-serif" font-size="10" fill="#7b8783">拖动地图后显示跟随、设置与结束</text>

    <rect x="270" y="548" width="460" height="510" rx="18" fill="#1a2b42" filter="url(#shadow)"/>
    <text x="292" y="583" font-family="sans-serif" font-size="20" font-weight="700" fill="#fff">沿途设施</text>
    <text x="292" y="605" font-family="sans-serif" font-size="11" fill="#8ec7ff">全路线 5 处 · 上下滑动查看</text>
    <text x="704" y="584" text-anchor="end" font-family="sans-serif" font-size="12" font-weight="700" fill="#8ec7ff">关闭</text>
    <line x1="292" y1="624" x2="708" y2="624" stroke="#5f8fc4" stroke-opacity=".45"/>
    <g font-family="sans-serif">
      <rect x="292" y="646" width="50" height="28" rx="7" fill="#1769e0"/><text x="317" y="665" text-anchor="middle" font-size="11" font-weight="700" fill="#fff">服务</text><text x="358" y="655" font-size="14" font-weight="700" fill="#fff">下沙服务区</text><text x="358" y="674" font-size="11" fill="#b9cbe4">18.0 公里 · 约 15 分钟</text>
      <line x1="292" y1="692" x2="708" y2="692" stroke="#5f8fc4" stroke-opacity=".3"/>
      <rect x="292" y="713" width="50" height="28" rx="7" fill="#1769e0"/><text x="317" y="732" text-anchor="middle" font-size="11" font-weight="700" fill="#fff">收费</text><text x="358" y="722" font-size="14" font-weight="700" fill="#fff">萧山收费站</text><text x="358" y="741" font-size="11" fill="#b9cbe4">28.0 公里 · 约 24 分钟</text>
      <line x1="292" y1="759" x2="708" y2="759" stroke="#5f8fc4" stroke-opacity=".3"/>
      <rect x="292" y="780" width="50" height="28" rx="7" fill="#1769e0"/><text x="317" y="799" text-anchor="middle" font-size="11" font-weight="700" fill="#fff">服务</text><text x="358" y="789" font-size="14" font-weight="700" fill="#fff">绍兴服务区</text><text x="358" y="808" font-size="11" fill="#b9cbe4">43.5 公里 · 约 38 分钟</text>
      <line x1="292" y1="826" x2="708" y2="826" stroke="#5f8fc4" stroke-opacity=".3"/>
      <rect x="292" y="847" width="50" height="28" rx="7" fill="#1769e0"/><text x="317" y="866" text-anchor="middle" font-size="11" font-weight="700" fill="#fff">收费</text><text x="358" y="856" font-size="14" font-weight="700" fill="#fff">绍兴北收费站</text><text x="358" y="875" font-size="11" fill="#b9cbe4">56.0 公里 · 约 49 分钟</text>
    </g>
    <rect x="494" y="1033" width="12" height="4" rx="2" fill="#8ec7ff"/>
  </g>
  <circle cx="500" cy="1092" r="4" fill="#30433c"/>
  <g font-family="sans-serif" text-anchor="middle"><text x="246" y="1153" font-size="14" font-weight="700" fill="#17211f">路线事件提示</text><text x="500" y="1153" font-size="14" font-weight="700" fill="#17211f">完整测速信息</text><text x="754" y="1153" font-size="14" font-weight="700" fill="#17211f">服务区与收费站</text></g>
</svg>