<svg xmlns="http://www.w3.org/2000/svg" width="1500" height="900" viewBox="0 0 1500 900">
  <defs>
    <filter id="shadow" x="-30%" y="-30%" width="160%" height="180%"><feDropShadow dx="0" dy="12" stdDeviation="18" flood-color="#07110e" flood-opacity=".25"/></filter>
    <filter id="soft" x="-30%" y="-30%" width="160%" height="180%"><feDropShadow dx="0" dy="5" stdDeviation="8" flood-color="#07110e" flood-opacity=".2"/></filter>
    <linearGradient id="map" x1="0" y1="0" x2="1" y2="1"><stop stop-color="#33473f"/><stop offset="1" stop-color="#182923"/></linearGradient>
    <pattern id="roads" width="210" height="145" patternUnits="userSpaceOnUse"><rect width="210" height="145" fill="url(#map)"/><path d="M-30 108C35 65 97 85 235 18M54-18C78 37 92 88 68 164M147-20C130 35 149 94 229 132" fill="none" stroke="#52665e" stroke-width="7"/><path d="M-30 108C35 65 97 85 235 18M54-18C78 37 92 88 68 164M147-20C130 35 149 94 229 132" fill="none" stroke="#82958d" stroke-width="1"/></pattern>
    <clipPath id="screen"><rect x="75" y="135" width="1350" height="620" rx="24"/></clipPath>
  </defs>
  <rect width="1500" height="900" fill="#f3f7f5"/><text x="75" y="64" font-family="sans-serif" font-size="30" font-weight="700" fill="#17211f">横屏导航 · 路口放大图</text><text x="75" y="96" font-family="sans-serif" font-size="14" fill="#687872">转向、路口与行程指标合为左侧信息区 · 速度紧邻信息区 · 地图保持主视觉</text>
  <rect x="42" y="102" width="1416" height="686" rx="48" fill="#101d18" filter="url(#shadow)"/><rect x="75" y="135" width="1350" height="620" rx="24" fill="url(#roads)"/>
  <g clip-path="url(#screen)">
    <path d="M330 790C502 680 604 634 728 563C853 492 913 392 989 302C1084 191 1220 156 1482 103" fill="none" stroke="#233b32" stroke-width="70" stroke-linecap="round"/><path d="M330 790C502 680 604 634 728 563C853 492 913 392 989 302C1084 191 1220 156 1482 103" fill="none" stroke="#45b878" stroke-width="16" stroke-linecap="round"/><path d="M848 494C943 505 1033 568 1141 682" fill="none" stroke="#61766d" stroke-width="12"/><text x="1125" y="568" transform="rotate(39 1125 568)" font-family="sans-serif" font-size="14" fill="#aebeb8">钱塘快速路</text>

    <rect x="94" y="154" width="490" height="468" rx="14" fill="#1b2b26" filter="url(#shadow)"/>
    <rect x="112" y="172" width="86" height="82" rx="9" fill="#294139"/><path d="M141 238v-35c0-14 10-22 24-22h18M175 167l17 14-17 14" fill="none" stroke="#83d2ba" stroke-width="8" stroke-linecap="round" stroke-linejoin="round"/>
    <text x="220" y="205" font-family="sans-serif" font-size="28" font-weight="700" fill="#fff">机场高速</text><text x="220" y="240" font-family="sans-serif" font-size="18" font-weight="700" fill="#83d2ba">1.2 公里后</text><text x="340" y="240" font-family="sans-serif" font-size="16" fill="#c7d6d1">靠右行驶</text>
    <line x1="94" y1="272" x2="584" y2="272" stroke="#40574f"/>
    <rect x="106" y="284" width="466" height="262" rx="7" fill="#20302a"/>
    <path d="M134 514C207 466 247 421 292 359" fill="none" stroke="#475b52" stroke-width="58"/><path d="M134 514C207 466 247 421 292 359" fill="none" stroke="#45b878" stroke-width="15"/><path d="M292 359C328 318 377 307 445 307" fill="none" stroke="#45b878" stroke-width="15"/><path d="M292 359C335 396 371 449 407 522" fill="none" stroke="#52665e" stroke-width="15"/><path d="M281 368l12-23 23 11" fill="none" stroke="#fff" stroke-width="5" stroke-linecap="round" stroke-linejoin="round"/><text x="124" y="310" font-family="sans-serif" font-size="12" font-weight="700" fill="#dbe9e4">路口放大图</text><rect x="493" y="296" width="62" height="25" rx="5" fill="#294139"/><text x="524" y="313" text-anchor="middle" font-family="sans-serif" font-size="10" fill="#83d2ba">靠右</text>
    <line x1="94" y1="558" x2="584" y2="558" stroke="#40574f"/>
    <g font-family="sans-serif" text-anchor="middle"><text x="147" y="585" font-size="14" font-weight="700" fill="#fff">35 分</text><text x="147" y="603" font-size="9" fill="#9fb6af">时间</text><rect x="209" y="570" width="1" height="34" fill="#40574f"/><text x="267" y="585" font-size="14" font-weight="700" fill="#fff">34.0 km</text><text x="267" y="603" font-size="9" fill="#9fb6af">剩余</text><rect x="332" y="570" width="1" height="34" fill="#40574f"/><text x="386" y="585" font-size="14" font-weight="700" fill="#fff">6</text><text x="386" y="603" font-size="9" fill="#9fb6af">红绿灯</text><rect x="443" y="570" width="1" height="34" fill="#40574f"/><text x="506" y="585" font-size="14" font-weight="700" fill="#fff">18:42</text><text x="506" y="603" font-size="9" fill="#9fb6af">预计</text></g>

    <g transform="translate(500 -260)"><circle cx="136" cy="443" r="38" fill="#243832" filter="url(#soft)"/><text x="136" y="450" text-anchor="middle" font-family="sans-serif" font-size="25" font-weight="700" fill="#fff">82</text><text x="136" y="466" text-anchor="middle" font-family="sans-serif" font-size="9" fill="#aabbb5">km/h</text><circle cx="170" cy="411" r="21" fill="#fff" stroke="#d84b42" stroke-width="4"/><text x="170" y="417" text-anchor="middle" font-family="sans-serif" font-size="14" font-weight="700" fill="#202a26">100</text>
    <circle cx="136" cy="532" r="38" fill="#fff" filter="url(#soft)"/><text x="136" y="526" text-anchor="middle" font-family="sans-serif" font-size="10" font-weight="700" fill="#53645e">区间测速</text><text x="136" y="548" text-anchor="middle" font-family="sans-serif" font-size="17" font-weight="700" fill="#17211f">均速 78</text></g>
    <rect x="620" y="620" width="294" height="58" rx="8" fill="#1b2b26" filter="url(#soft)"/><text x="638" y="644" font-family="sans-serif" font-size="14" font-weight="700" fill="#fff">下沙服务区 18.0 公里</text><text x="638" y="666" font-family="sans-serif" font-size="11" fill="#b9c9c3">约 15 分钟后到达</text><rect x="620" y="688" width="294" height="58" rx="8" fill="#1b2b26" filter="url(#soft)"/><text x="638" y="712" font-family="sans-serif" font-size="14" font-weight="700" fill="#fff">萧山服务区 42.0 公里</text><text x="638" y="734" font-family="sans-serif" font-size="11" fill="#b9c9c3">约 35 分钟后到达</text>

    <circle cx="860" cy="530" r="18" fill="#fff" stroke="#2f9f68" stroke-width="6"/><path d="M860 476l17 64-17-10-17 10z" fill="#45b878"/>
    <rect x="805" y="684" width="310" height="42" rx="9" fill="#f5f8f7" filter="url(#soft)"/><text x="960" y="710" text-anchor="middle" font-family="sans-serif" font-size="15" font-weight="700" fill="#263832">秋石高架路</text>
    <rect x="1335" y="151" width="65" height="30" rx="7" fill="#294139"/><text x="1367" y="171" text-anchor="middle" font-family="sans-serif" font-size="11" font-weight="700" fill="#83d2ba">GPS 12</text>
  </g>
  <circle cx="750" cy="775" r="4" fill="#30433c"/><g font-family="sans-serif" text-anchor="middle"><text x="255" y="842" font-size="15" font-weight="700" fill="#17211f">导航信息一体呈现</text><text x="750" y="842" font-size="15" font-weight="700" fill="#17211f">服务区避开信息面板</text><text x="1245" y="842" font-size="15" font-weight="700" fill="#17211f">地图保持宽阔可视</text></g>
</svg>