<svg xmlns="http://www.w3.org/2000/svg" width="1440" height="860" viewBox="0 0 1440 860">
  <defs>
    <filter id="shadow" x="-30%" y="-30%" width="160%" height="180%">
      <feDropShadow dx="0" dy="12" stdDeviation="18" flood-color="#0b1628" flood-opacity=".25"/>
    </filter>
    <filter id="soft" x="-30%" y="-30%" width="160%" height="180%">
      <feDropShadow dx="0" dy="5" stdDeviation="8" flood-color="#0b1628" flood-opacity=".2"/>
    </filter>
    <linearGradient id="map" x1="0" y1="0" x2="0" y2="1">
      <stop offset="0" stop-color="#334962"/>
      <stop offset="1" stop-color="#152238"/>
    </linearGradient>
    <clipPath id="screen"><rect x="90" y="132" width="1260" height="600" rx="24"/></clipPath>
    <pattern id="roads" width="190" height="130" patternUnits="userSpaceOnUse">
      <rect width="190" height="130" fill="url(#map)"/>
      <path d="M-20 92C38 60 90 77 210 18M48-12C69 38 84 79 66 145M128-12C116 30 133 85 204 119" fill="none" stroke="#53657b" stroke-width="5" opacity=".7"/>
      <path d="M-20 92C38 60 90 77 210 18M48-12C69 38 84 79 66 145M128-12C116 30 133 85 204 119" fill="none" stroke="#8290a2" stroke-width="1" opacity=".65"/>
    </pattern>
  </defs>
  <rect width="1440" height="860" fill="#f4f7fb"/>
  <text x="90" y="62" font-family="sans-serif" font-size="30" font-weight="700" fill="#172033">SimpleMap 横屏车机导航</text>
  <text x="90" y="94" font-family="sans-serif" font-size="14" fill="#66758b">900 × 480 dp 自适应布局 · 地图中心右移 · 实时高德回调驱动</text>
  <rect x="58" y="100" width="1324" height="664" rx="45" fill="#121d2d" filter="url(#shadow)"/>
  <rect x="90" y="132" width="1260" height="600" rx="24" fill="url(#roads)"/>
  <g clip-path="url(#screen)">
    <path d="M363 770C512 669 591 624 689 567C813 494 848 403 917 313C1009 192 1121 164 1406 98" fill="none" stroke="#25334a" stroke-width="64" stroke-linecap="round"/>
    <path d="M363 770C512 669 591 624 689 567C813 494 848 403 917 313C1009 192 1121 164 1406 98" fill="none" stroke="#5ba6ff" stroke-width="15" stroke-linecap="round"/>
    <path d="M835 488C932 503 1004 554 1100 658" fill="none" stroke="#617188" stroke-width="12"/>
    <path d="M715 224C838 258 935 245 1084 170" fill="none" stroke="#617188" stroke-width="11"/>
    <text x="1030" y="254" transform="rotate(-30 1030 254)" font-family="sans-serif" font-size="17" fill="#c6d0de">机场高速</text>
    <text x="1090" y="524" transform="rotate(40 1090 524)" font-family="sans-serif" font-size="14" fill="#9eacbd">钱塘快速路</text>

    <rect x="108" y="150" width="455" height="122" rx="8" fill="#162438" filter="url(#shadow)"/>
    <rect x="126" y="168" width="88" height="86" rx="7" fill="#263650"/>
    <path d="M155 236v-37c0-14 10-23 25-23h18M188 161l18 15-18 15" fill="none" stroke="#75b8ff" stroke-width="8" stroke-linecap="round" stroke-linejoin="round"/>
    <text x="235" y="201" font-family="sans-serif" font-size="29" font-weight="700" fill="#fff">机场高速</text>
    <text x="235" y="238" font-family="sans-serif" font-size="19" font-weight="700" fill="#75b8ff">1.2 公里</text>
    <text x="330" y="238" font-family="sans-serif" font-size="17" fill="#c5d2e5">后靠右行驶</text>
    <rect x="493" y="190" width="52" height="30" rx="5" fill="#27405f"/><text x="519" y="210" text-anchor="middle" font-family="sans-serif" font-size="11" font-weight="700" fill="#8ec7ff">GPS</text>

    <circle cx="150" cy="342" r="42" fill="#162438" filter="url(#soft)"/>
    <text x="150" y="347" text-anchor="middle" font-family="sans-serif" font-size="26" font-weight="700" fill="#fff">82</text>
    <text x="150" y="365" text-anchor="middle" font-family="sans-serif" font-size="10" fill="#b9c8dd">km/h</text>
    <circle cx="185" cy="307" r="22" fill="#fff" stroke="#d83a3a" stroke-width="4"/><text x="185" y="313" text-anchor="middle" font-family="sans-serif" font-size="14" font-weight="700" fill="#202a3a">100</text>
    <rect x="108" y="398" width="255" height="42" rx="6" fill="#fff" opacity=".96" filter="url(#soft)"/>
    <text x="124" y="424" font-family="sans-serif" font-size="14" font-weight="700" fill="#33435a">区间测速 5.6 公里 · 均速 78</text>

    <rect x="1050" y="150" width="280" height="44" rx="6" fill="#fff" opacity=".96" filter="url(#soft)"/>
    <text x="1067" y="178" font-family="sans-serif" font-size="16" font-weight="700" fill="#263330">当前：秋石高架路</text>

    <circle cx="905" cy="483" r="18" fill="#fff" stroke="#1769e0" stroke-width="6"/>
    <path d="M905 432l17 61-17-10-17 10z" fill="#1769e0"/>

    <rect x="1090" y="535" width="240" height="56" rx="7" fill="#162438" filter="url(#soft)"/>
    <text x="1106" y="558" font-family="sans-serif" font-size="14" font-weight="700" fill="#fff">下沙服务区 18.0 公里</text><text x="1106" y="579" font-family="sans-serif" font-size="11" fill="#b9c8dd">约 15 分钟后到达</text>
    <rect x="1090" y="600" width="240" height="56" rx="7" fill="#162438" filter="url(#soft)"/>
    <text x="1106" y="623" font-family="sans-serif" font-size="14" font-weight="700" fill="#fff">萧山服务区 42.0 公里</text><text x="1106" y="644" font-family="sans-serif" font-size="11" fill="#b9c8dd">约 35 分钟后到达</text>

    <rect x="380" y="660" width="680" height="54" rx="8" fill="#fff" filter="url(#shadow)"/>
    <text x="405" y="695" font-family="sans-serif" font-size="22" font-weight="700" fill="#1769e0">35 分钟</text>
    <text x="555" y="695" font-family="sans-serif" font-size="18" font-weight="700" fill="#172033">剩余 34.0 公里</text>
    <text x="765" y="695" font-family="sans-serif" font-size="14" fill="#66758b">前方 6 个红绿灯</text>
    <text x="1014" y="695" text-anchor="end" font-family="sans-serif" font-size="13" font-weight="700" fill="#1769e0">预计 18:42 到达</text>
  </g>
  <circle cx="720" cy="748" r="4" fill="#303d50"/>
  <g font-family="sans-serif" text-anchor="middle">
    <text x="310" y="812" font-size="15" font-weight="700" fill="#172033">左侧驾驶信息</text>
    <text x="720" y="812" font-size="15" font-weight="700" fill="#172033">地图保持主视觉</text>
    <text x="1130" y="812" font-size="15" font-weight="700" fill="#172033">右侧道路与服务区</text>
  </g>
</svg>
