<svg xmlns="http://www.w3.org/2000/svg" width="1000" height="760" viewBox="0 0 1000 760">
  <defs>
    <filter id="shadow" x="-30%" y="-30%" width="160%" height="180%"><feDropShadow dx="0" dy="12" stdDeviation="18" flood-color="#18312b" flood-opacity=".2"/></filter>
    <filter id="soft" x="-30%" y="-30%" width="160%" height="180%"><feDropShadow dx="0" dy="5" stdDeviation="8" flood-color="#18312b" flood-opacity=".12"/></filter>
    <clipPath id="screen"><rect x="280" y="110" width="440" height="568" rx="32"/></clipPath>
  </defs>
  <rect width="1000" height="760" fill="#f4f7fb"/>
  <path d="M0 0h1000v52C820 91 626 21 430 55C242 88 105 73 0 43z" fill="#dce8f8"/>
  <text x="58" y="54" font-family="sans-serif" font-size="28" font-weight="700" fill="#172033">离线地图下载策略</text>
  <text x="58" y="82" font-family="sans-serif" font-size="14" fill="#66758b">容量清晰可见 · 默认仅 Wi-Fi · 网络受限原因明确</text>

  <rect x="250" y="82" width="500" height="624" rx="56" fill="#13211e" filter="url(#shadow)"/>
  <rect x="280" y="110" width="440" height="568" rx="32" fill="#f8faf9"/>
  <rect x="430" y="94" width="140" height="22" rx="11" fill="#07110e"/>

  <g clip-path="url(#screen)" font-family="sans-serif">
    <rect x="280" y="110" width="440" height="76" fill="#fff"/>
    <text x="304" y="151" font-size="25" font-weight="700" fill="#17211f">我的</text>
    <g transform="translate(304 164)">
      <rect width="114" height="36" rx="8" fill="#fff" stroke="#b7c4bf"/><text x="57" y="23" text-anchor="middle" font-size="12" fill="#45534f">收藏</text>
      <rect x="121" width="134" height="36" rx="8" fill="#1769e0"/><text x="188" y="23" text-anchor="middle" font-size="12" font-weight="700" fill="#fff">离线地图</text>
      <rect x="262" width="114" height="36" rx="8" fill="#fff" stroke="#b7c4bf"/><text x="319" y="23" text-anchor="middle" font-size="12" fill="#45534f">设置</text>
    </g>

    <g transform="translate(304 222)">
      <text y="17" font-size="14" font-weight="700" fill="#17211f">离线包容量</text>
      <text y="38" font-size="11" fill="#68736f">已下载 256.0 MB / 全部 4.8 GB</text>
      <text x="250" y="25" font-size="12" fill="#34423e">仅 Wi-Fi 下载</text>
      <rect x="338" y="7" width="38" height="22" rx="11" fill="#1769e0"/>
      <circle cx="365" cy="18" r="8" fill="#fff"/>
    </g>

    <rect x="304" y="276" width="392" height="54" rx="8" fill="#f9eae7"/>
    <circle cx="324" cy="303" r="7" fill="none" stroke="#b3473f" stroke-width="2"/>
    <path d="M321 303h6m-3-3v6" stroke="#b3473f" stroke-width="1.5"/>
    <text x="342" y="307" font-size="12" font-weight="700" fill="#b3473f">已开启仅 Wi-Fi 下载，连接 Wi-Fi 后可继续</text>
    <text x="304" y="352" font-size="10" fill="#68736f">城市包仅提供离线底图；搜索、路线规划和实时导航可能仍需网络。</text>

    <rect x="304" y="373" width="392" height="48" rx="8" fill="#fff" stroke="#b7c4bf"/>
    <circle cx="326" cy="397" r="7" fill="none" stroke="#45534f" stroke-width="1.5"/><path d="M331 402l6 6" stroke="#45534f" stroke-width="1.5"/>
    <text x="348" y="402" font-size="12" fill="#77837f">搜索城市</text>

    <g transform="translate(304 442)">
      <rect width="392" height="70" rx="8" fill="#fff" filter="url(#soft)"/>
      <text x="14" y="24" font-size="14" font-weight="700" fill="#17211f">杭州市</text>
      <text x="14" y="45" font-size="11" fill="#68736f">128.0 MB · 已安装</text>
      <text x="358" y="35" text-anchor="end" font-size="12" font-weight="700" fill="#b43e36">删除</text>
    </g>

    <g transform="translate(304 522)">
      <rect width="392" height="82" rx="8" fill="#fff" filter="url(#soft)"/>
      <text x="14" y="24" font-size="14" font-weight="700" fill="#17211f">宁波市</text>
      <text x="14" y="45" font-size="11" fill="#68736f">136.0 MB · 下载中 64%</text>
      <text x="358" y="35" text-anchor="end" font-size="12" font-weight="700" fill="#1769e0">暂停</text>
      <rect x="14" y="61" width="364" height="5" rx="2.5" fill="#dfe6e3"/><rect x="14" y="61" width="233" height="5" rx="2.5" fill="#1769e0"/>
    </g>

    <g transform="translate(304 614)">
      <text x="14" y="20" font-size="14" font-weight="700" fill="#17211f">绍兴市</text>
      <text x="14" y="41" font-size="11" fill="#68736f">112.0 MB · 未下载</text>
      <text x="358" y="29" text-anchor="end" font-size="12" fill="#a5afac">下载</text>
    </g>
  </g>
  <text x="500" y="736" text-anchor="middle" font-family="sans-serif" font-size="13" font-weight="700" fill="#17211f">关闭仅 Wi-Fi 后，可在其他可用网络继续下载</text>
</svg>