<svg xmlns="http://www.w3.org/2000/svg" width="1200" height="760" viewBox="0 0 1200 760">
  <defs>
    <filter id="shadow" x="-30%" y="-30%" width="160%" height="180%"><feDropShadow dx="0" dy="12" stdDeviation="18" flood-color="#07110e" flood-opacity=".2"/></filter>
    <filter id="soft" x="-30%" y="-30%" width="160%" height="180%"><feDropShadow dx="0" dy="5" stdDeviation="8" flood-color="#07110e" flood-opacity=".14"/></filter>
    <linearGradient id="map" x1="0" y1="0" x2="1" y2="1"><stop stop-color="#385148"/><stop offset="1" stop-color="#1a2c26"/></linearGradient>
    <pattern id="roads" width="170" height="130" patternUnits="userSpaceOnUse"><rect width="170" height="130" fill="url(#map)"/><path d="M-20 106C35 65 88 78 192 20M38-16C67 34 65 81 43 148M119-18C108 38 130 92 194 116" fill="none" stroke="#60756c" stroke-width="8"/><path d="M-20 106C35 65 88 78 192 20M38-16C67 34 65 81 43 148M119-18C108 38 130 92 194 116" fill="none" stroke="#92a49d" stroke-width="1"/></pattern>
    <clipPath id="leftScreen"><rect x="100" y="133" width="374" height="534" rx="28"/></clipPath>
    <clipPath id="rightScreen"><rect x="700" y="133" width="374" height="534" rx="28"/></clipPath>
  </defs>
  <rect width="1200" height="760" fill="#f3f7f5"/>
  <text x="66" y="62" font-family="sans-serif" font-size="30" font-weight="700" fill="#17211f">持续导航与本地行程复盘</text>
  <text x="66" y="91" font-family="sans-serif" font-size="14" fill="#687872">实时导航保持后台通知 · 复盘时长、里程与均速 · 摘要仅保存在本机</text>

  <g filter="url(#shadow)"><rect x="74" y="108" width="426" height="584" rx="48" fill="#101d18"/><rect x="100" y="133" width="374" height="534" rx="28" fill="url(#roads)"/></g>
  <rect x="218" y="119" width="138" height="22" rx="11" fill="#07110e"/>
  <g clip-path="url(#leftScreen)">
    <path d="M118 579C184 522 220 470 261 410C311 337 364 294 469 246" fill="none" stroke="#203a31" stroke-width="54" stroke-linecap="round"/>
    <path d="M118 579C184 522 220 470 261 410C311 337 364 294 469 246" fill="none" stroke="#4bc285" stroke-width="13" stroke-linecap="round"/>
    <rect x="116" y="157" width="342" height="104" rx="13" fill="#fff" filter="url(#soft)"/>
    <rect x="132" y="174" width="42" height="42" rx="9" fill="#17211f"/>
    <path d="M145 203v-13h14M154 183l8 7-8 7" fill="none" stroke="#83d2ba" stroke-width="4" stroke-linecap="round" stroke-linejoin="round"/>
    <text x="188" y="186" font-family="sans-serif" font-size="11" font-weight="700" fill="#1769e0">SimpleMap · 正在导航</text>
    <text x="188" y="207" font-family="sans-serif" font-size="16" font-weight="700" fill="#17211f">正在导航至西湖风景名胜区</text>
    <text x="188" y="228" font-family="sans-serif" font-size="11" fill="#687872">返回 SimpleMap 查看实时路线</text>
    <text x="188" y="247" font-family="sans-serif" font-size="10" fill="#8a9692">持续通知 · 点击返回导航</text>
    <circle cx="292" cy="427" r="15" fill="#fff" stroke="#2f9f68" stroke-width="5"/>
    <path d="M292 381l14 55-14-9-14 9z" fill="#45b878"/>
    <rect x="138" y="578" width="298" height="56" rx="12" fill="#fff" filter="url(#soft)"/>
    <text x="157" y="601" font-family="sans-serif" font-size="17" font-weight="700" fill="#1769e0">18 分钟</text>
    <text x="314" y="601" font-family="sans-serif" font-size="13" font-weight="700" fill="#17211f">剩余 7.4 公里</text>
    <text x="157" y="620" font-family="sans-serif" font-size="10" fill="#687872">前台服务仅保持会话，不保存位置轨迹</text>
  </g>

  <g filter="url(#shadow)"><rect x="674" y="108" width="426" height="584" rx="48" fill="#101d18"/><rect x="700" y="133" width="374" height="534" rx="28" fill="#f8faf9"/></g>
  <rect x="818" y="119" width="138" height="22" rx="11" fill="#07110e"/>
  <g clip-path="url(#rightScreen)" font-family="sans-serif">
    <rect x="700" y="133" width="374" height="86" fill="#fff"/>
    <text x="724" y="174" font-size="25" font-weight="700" fill="#17211f">行程</text>
    <text x="724" y="199" font-size="12" fill="#687872">3 条行程记录 · 累计 17.8 公里</text>

    <g transform="translate(716 235)">
      <rect width="342" height="116" rx="8" fill="#fff" stroke="#e1e8e5"/>
      <circle cx="23" cy="28" r="6" fill="#2f9f68"/><circle cx="23" cy="68" r="6" fill="#1769e0"/><path d="M23 36v24" stroke="#a6b3ae" stroke-width="2" stroke-dasharray="3 3"/>
      <text x="42" y="31" font-size="12" fill="#687872">杭州东站</text><text x="42" y="72" font-size="15" font-weight="700" fill="#17211f">西湖风景名胜区</text>
      <text x="42" y="99" font-size="11" fill="#687872">今天 14:20 · 32 分钟 · 12.0 公里</text>
      <text x="305" y="25" text-anchor="end" font-size="11" font-weight="700" fill="#1769e0">已到达</text>
    </g>

    <g transform="translate(716 363)">
      <rect width="342" height="116" rx="8" fill="#fff" stroke="#e1e8e5"/>
      <circle cx="23" cy="28" r="6" fill="#2f9f68"/><circle cx="23" cy="68" r="6" fill="#1769e0"/><path d="M23 36v24" stroke="#a6b3ae" stroke-width="2" stroke-dasharray="3 3"/>
      <text x="42" y="31" font-size="12" fill="#687872">武林广场</text><text x="42" y="72" font-size="15" font-weight="700" fill="#17211f">杭州植物园</text>
      <text x="42" y="99" font-size="11" fill="#687872">昨天 18:08 · 9 分钟 · 3.1 公里</text>
      <text x="305" y="25" text-anchor="end" font-size="11" font-weight="700" fill="#68736f">已取消</text>
    </g>

    <g transform="translate(716 491)">
      <rect width="342" height="116" rx="8" fill="#fff" stroke="#e1e8e5"/>
      <circle cx="23" cy="28" r="6" fill="#2f9f68"/><circle cx="23" cy="68" r="6" fill="#1769e0"/><path d="M23 36v24" stroke="#a6b3ae" stroke-width="2" stroke-dasharray="3 3"/>
      <text x="42" y="31" font-size="12" fill="#687872">湖滨银泰</text><text x="42" y="72" font-size="15" font-weight="700" fill="#17211f">钱江新城</text>
      <text x="42" y="99" font-size="11" fill="#687872">周一 09:15 · 6 分钟 · 2.7 公里</text>
      <text x="305" y="25" text-anchor="end" font-size="11" font-weight="700" fill="#b43e36">模拟 · 失败</text>
    </g>
    <rect x="700" y="219" width="374" height="448" fill="#07110e" opacity=".46"/>
    <g transform="translate(724 252)" filter="url(#soft)">
      <rect width="326" height="356" rx="8" fill="#fff"/>
      <text x="18" y="34" font-size="20" font-weight="700" fill="#17211f">行程复盘</text>
      <text x="18" y="56" font-size="11" fill="#687872">杭州东站 → 西湖风景名胜区</text>
      <line x1="18" y1="72" x2="308" y2="72" stroke="#e1e8e5"/>
      <g font-size="12">
        <text x="18" y="101" fill="#687872">出发时间</text><text x="308" y="101" text-anchor="end" font-weight="700" fill="#17211f">11-15 14:20</text>
        <text x="18" y="135" fill="#687872">出行方式</text><text x="308" y="135" text-anchor="end" font-weight="700" fill="#17211f">驾车</text>
        <text x="18" y="169" fill="#687872">行驶时长</text><text x="308" y="169" text-anchor="end" font-weight="700" fill="#17211f">30 分钟</text>
        <text x="18" y="203" fill="#687872">行驶距离</text><text x="308" y="203" text-anchor="end" font-weight="700" fill="#17211f">12.0 公里</text>
        <text x="18" y="237" fill="#687872">平均速度</text><text x="308" y="237" text-anchor="end" font-weight="700" fill="#17211f">24 km/h</text>
        <text x="18" y="271" fill="#687872">结束状态</text><text x="308" y="271" text-anchor="end" font-weight="700" fill="#1769e0">已到达</text>
      </g>
      <line x1="18" y1="286" x2="308" y2="286" stroke="#e1e8e5"/>
      <text x="18" y="307" font-size="9" fill="#687872">仅保存在本机，记录行程摘要，不保存轨迹点。</text>
      <text x="215" y="338" text-anchor="middle" font-size="12" font-weight="700" fill="#687872">关闭</text>
      <text x="285" y="338" text-anchor="middle" font-size="12" font-weight="700" fill="#1769e0">再次规划</text>
    </g>
  </g>
  <text x="287" y="729" text-anchor="middle" font-family="sans-serif" font-size="13" font-weight="700" fill="#17211f">后台会话可恢复</text>
  <text x="887" y="729" text-anchor="middle" font-family="sans-serif" font-size="13" font-weight="700" fill="#17211f">摘要复盘，不保存轨迹点</text>
</svg>