<svg xmlns="http://www.w3.org/2000/svg" width="1600" height="1000" viewBox="0 0 1600 1000">
  <defs>
    <filter id="shadow" x="-30%" y="-30%" width="160%" height="180%">
      <feDropShadow dx="0" dy="12" stdDeviation="18" flood-color="#18312b" flood-opacity=".18"/>
    </filter>
    <filter id="soft" x="-30%" y="-30%" width="160%" height="180%">
      <feDropShadow dx="0" dy="6" stdDeviation="10" flood-color="#18312b" flood-opacity=".14"/>
    </filter>
    <clipPath id="p1"><rect x="46" y="110" width="340" height="760" rx="38"/></clipPath>
    <clipPath id="p2"><rect x="436" y="110" width="340" height="760" rx="38"/></clipPath>
    <clipPath id="p3"><rect x="826" y="110" width="340" height="760" rx="38"/></clipPath>
    <clipPath id="p4"><rect x="1216" y="110" width="340" height="760" rx="38"/></clipPath>
    <pattern id="blocks" width="100" height="82" patternUnits="userSpaceOnUse">
      <rect width="100" height="82" fill="#eaf0eb"/>
      <rect x="7" y="8" width="34" height="27" rx="4" fill="#d8e3da"/>
      <rect x="57" y="11" width="35" height="42" rx="4" fill="#dce7df"/>
      <rect x="10" y="52" width="42" height="23" rx="4" fill="#d5e1d7"/>
    </pattern>
    <linearGradient id="nav" x1="0" y1="0" x2="0" y2="1">
      <stop offset="0" stop-color="#183d35"/>
      <stop offset="1" stop-color="#102b26"/>
    </linearGradient>
  </defs>

  <rect width="1600" height="1000" fill="#f3f6f2"/>
  <path d="M0 0H1600V55C1310 115 930 4 615 55C340 100 154 86 0 42Z" fill="#dce9df"/>
  <text x="54" y="60" font-family="sans-serif" font-size="28" font-weight="700" fill="#17211f">SimpleMap</text>
  <text x="232" y="60" font-family="sans-serif" font-size="15" fill="#5f6b68">核心体验视觉稿 · 地图 / 地点 / 路线 / 导航</text>

  <!-- Phone frames -->
  <g fill="#13211e" filter="url(#shadow)">
    <rect x="32" y="96" width="368" height="788" rx="49"/>
    <rect x="422" y="96" width="368" height="788" rx="49"/>
    <rect x="812" y="96" width="368" height="788" rx="49"/>
    <rect x="1202" y="96" width="368" height="788" rx="49"/>
  </g>
  <g fill="#08100e">
    <rect x="164" y="104" width="104" height="20" rx="10"/>
    <rect x="554" y="104" width="104" height="20" rx="10"/>
    <rect x="944" y="104" width="104" height="20" rx="10"/>
    <rect x="1334" y="104" width="104" height="20" rx="10"/>
  </g>

  <!-- Screen 1: map -->
  <g clip-path="url(#p1)">
    <rect x="46" y="110" width="340" height="760" fill="url(#blocks)"/>
    <path d="M30 650C105 580 129 477 208 410C266 361 335 336 409 246" fill="none" stroke="#fff" stroke-width="32"/>
    <path d="M30 650C105 580 129 477 208 410C266 361 335 336 409 246" fill="none" stroke="#c8d2cc" stroke-width="2"/>
    <path d="M20 281C122 307 185 279 250 236C310 196 349 180 415 183" fill="none" stroke="#fff" stroke-width="18"/>
    <path d="M20 281C122 307 185 279 250 236C310 196 349 180 415 183" fill="none" stroke="#cad4ce" stroke-width="2"/>
    <path d="M75 153C104 227 120 330 93 429C73 503 69 590 93 698" fill="none" stroke="#fff" stroke-width="13"/>
    <rect x="68" y="148" width="296" height="58" rx="8" fill="#fff" filter="url(#soft)"/>
    <circle cx="94" cy="177" r="9" fill="none" stroke="#263330" stroke-width="2"/>
    <path d="M101 184l8 8" stroke="#263330" stroke-width="2" stroke-linecap="round"/>
    <text x="120" y="183" font-family="sans-serif" font-size="15" fill="#64706d">搜索地点、公交或路线</text>
    <circle cx="338" cy="177" r="18" fill="#e4f2ea"/>
    <text x="338" y="182" text-anchor="middle" font-family="sans-serif" font-size="13" font-weight="700" fill="#126b56">S</text>
    <circle cx="215" cy="430" r="18" fill="#fff" stroke="#126b56" stroke-width="5"/>
    <circle cx="215" cy="430" r="7" fill="#126b56"/>
    <g filter="url(#soft)">
      <circle cx="344" cy="603" r="24" fill="#fff"/>
      <circle cx="344" cy="662" r="24" fill="#fff"/>
      <circle cx="344" cy="721" r="24" fill="#126b56"/>
    </g>
    <path d="M334 603h20M344 593v20" stroke="#263330" stroke-width="2.4" stroke-linecap="round"/>
    <path d="M334 662h20" stroke="#263330" stroke-width="2.4" stroke-linecap="round"/>
    <path d="M344 710l7 17-7-4-7 4z" fill="#fff"/>
    <rect x="64" y="785" width="304" height="68" rx="8" fill="#fff" filter="url(#soft)"/>
    <g font-family="sans-serif" font-size="12" text-anchor="middle">
      <circle cx="105" cy="807" r="4" fill="#126b56"/><text x="105" y="832" fill="#126b56" font-weight="700">地图</text>
      <circle cx="180" cy="807" r="4" fill="#d5dcd8"/><text x="180" y="832" fill="#68736f">路线</text>
      <circle cx="255" cy="807" r="4" fill="#d5dcd8"/><text x="255" y="832" fill="#68736f">行程</text>
      <circle cx="330" cy="807" r="4" fill="#d5dcd8"/><text x="330" y="832" fill="#68736f">我的</text>
    </g>
  </g>

  <!-- Screen 2: place details -->
  <g clip-path="url(#p2)">
    <rect x="436" y="110" width="340" height="760" fill="url(#blocks)"/>
    <path d="M410 623C506 548 565 490 614 379C649 302 713 253 805 232" fill="none" stroke="#fff" stroke-width="28"/>
    <path d="M410 623C506 548 565 490 614 379C649 302 713 253 805 232" fill="none" stroke="#c9d3cd" stroke-width="2"/>
    <rect x="458" y="148" width="296" height="58" rx="8" fill="#fff" filter="url(#soft)"/>
    <circle cx="484" cy="177" r="9" fill="none" stroke="#263330" stroke-width="2"/>
    <path d="M491 184l8 8" stroke="#263330" stroke-width="2"/>
    <text x="510" y="182" font-family="sans-serif" font-size="15" fill="#64706d">西湖风景名胜区</text>
    <path d="M612 339c-18 0-30 14-30 30 0 21 30 51 30 51s30-30 30-51c0-16-12-30-30-30z" fill="#d94b41"/>
    <circle cx="612" cy="368" r="9" fill="#fff"/>
    <rect x="454" y="543" width="304" height="224" rx="8" fill="#fff" filter="url(#shadow)"/>
    <text x="474" y="578" font-family="sans-serif" font-size="21" font-weight="700" fill="#17211f">西湖风景名胜区</text>
    <text x="474" y="603" font-family="sans-serif" font-size="13" fill="#60706b">龙井路 1 号 · 距你 2.4 公里</text>
    <line x1="474" y1="622" x2="738" y2="622" stroke="#e5ebe7"/>
    <g font-family="sans-serif" font-size="12">
      <text x="474" y="649" fill="#7b8582">分类</text><text x="528" y="649" fill="#35413e">风景名胜 · 公园广场</text>
      <text x="474" y="674" fill="#7b8582">开放</text><text x="528" y="674" fill="#126b56">全天开放</text>
      <text x="474" y="699" fill="#7b8582">坐标</text><text x="528" y="699" fill="#35413e">30.25110, 120.12690</text>
    </g>
    <rect x="474" y="718" width="118" height="38" rx="8" fill="#fff" stroke="#aab7b2"/>
    <path d="M493 736l4-8 4 8 8 1-6 6 2 8-8-4-8 4 2-8-6-6z" fill="none" stroke="#126b56" stroke-width="1.5"/>
    <text x="542" y="742" text-anchor="middle" font-family="sans-serif" font-size="13" fill="#126b56">收藏</text>
    <rect x="602" y="718" width="136" height="38" rx="8" fill="#126b56"/>
    <path d="M621 744l8-13 8 13M629 731v18" fill="none" stroke="#fff" stroke-width="2" stroke-linecap="round"/>
    <text x="680" y="742" text-anchor="middle" font-family="sans-serif" font-size="13" font-weight="700" fill="#fff">去这里</text>
    <rect x="454" y="789" width="304" height="64" rx="8" fill="#fff" filter="url(#soft)"/>
  </g>

  <!-- Screen 3: planner -->
  <g clip-path="url(#p3)">
    <rect x="826" y="110" width="340" height="760" fill="url(#blocks)"/>
    <path d="M802 720C866 650 915 602 983 535C1040 478 1112 430 1192 377" fill="none" stroke="#fff" stroke-width="27" stroke-linecap="round"/>
    <path d="M802 720C866 650 915 602 983 535C1040 478 1112 430 1192 377" fill="none" stroke="#63c6a1" stroke-width="8" stroke-linecap="round"/>
    <rect x="826" y="110" width="340" height="296" fill="#fff" filter="url(#soft)"/>
    <text x="846" y="153" font-family="sans-serif" font-size="22" font-weight="700" fill="#17211f">路线</text>
    <circle cx="852" cy="188" r="5" fill="#2a8b72"/>
    <line x1="852" y1="194" x2="852" y2="239" stroke="#d6dfdc" stroke-width="2"/>
    <circle cx="852" cy="247" r="5" fill="#fff" stroke="#e95d45" stroke-width="2"/>
    <rect x="868" y="169" width="224" height="43" rx="8" fill="#f7f9f8" stroke="#d9e0dd"/>
    <text x="882" y="195" font-family="sans-serif" font-size="13" fill="#263330">杭州东站</text>
    <rect x="868" y="222" width="224" height="43" rx="8" fill="#f7f9f8" stroke="#d9e0dd"/>
    <text x="882" y="248" font-family="sans-serif" font-size="13" fill="#263330">西湖风景名胜区</text>
    <text x="1124" y="219" text-anchor="middle" font-family="sans-serif" font-size="12" font-weight="700" fill="#126b56">交换</text>
    <rect x="846" y="287" width="300" height="42" rx="8" fill="#f0f4f2"/>
    <rect x="849" y="290" width="72" height="36" rx="6" fill="#fff" filter="url(#soft)"/>
    <g font-family="sans-serif" font-size="12" text-anchor="middle">
      <text x="885" y="313" fill="#126b56" font-weight="700">驾车</text>
      <text x="959" y="313" fill="#65716e">公交</text>
      <text x="1033" y="313" fill="#65716e">骑行</text>
      <text x="1107" y="313" fill="#65716e">步行</text>
    </g>
    <text x="846" y="360" font-family="sans-serif" font-size="12" fill="#53615d">为你推荐 3 条路线</text>
    <rect x="840" y="424" width="218" height="126" rx="8" fill="#f1faf6" stroke="#1d8a6d" stroke-width="2" filter="url(#soft)"/>
    <text x="856" y="456" font-family="sans-serif" font-size="20" font-weight="700" fill="#126b56">28 分钟</text>
    <rect x="997" y="438" width="45" height="20" rx="4" fill="#1d8a6d"/>
    <text x="1019" y="452" text-anchor="middle" font-family="sans-serif" font-size="10" font-weight="700" fill="#fff">推荐</text>
    <text x="856" y="484" font-family="sans-serif" font-size="12" fill="#53615d">躲避拥堵 · 红绿灯较少</text>
    <text x="856" y="527" font-family="sans-serif" font-size="13" font-weight="700" fill="#35413e">13.6 公里</text>
    <text x="1040" y="527" text-anchor="end" font-family="sans-serif" font-size="11" fill="#7a8582">约 ¥8.0</text>
    <rect x="1068" y="424" width="218" height="126" rx="8" fill="#fff" stroke="#e0e7e4" filter="url(#soft)"/>
    <text x="1084" y="456" font-family="sans-serif" font-size="20" font-weight="700" fill="#17211f">34 分钟</text>
    <text x="1084" y="484" font-family="sans-serif" font-size="12" fill="#53615d">距离较短 · 红绿灯较多</text>
    <rect x="840" y="570" width="306" height="74" rx="8" fill="#f4f7f5"/>
    <text x="856" y="595" font-family="sans-serif" font-size="13" font-weight="700" fill="#263330">路线详情</text>
    <text x="856" y="620" font-family="sans-serif" font-size="11" fill="#596561">天城路 · 秋涛北路 · 环城西路</text>
    <rect x="826" y="788" width="340" height="82" fill="#fff" filter="url(#soft)"/>
    <rect x="842" y="801" width="308" height="48" rx="8" fill="#17211f"/>
    <text x="996" y="831" text-anchor="middle" font-family="sans-serif" font-size="14" font-weight="700" fill="#fff">开始导航</text>
  </g>

  <!-- Screen 4: navigation -->
  <g clip-path="url(#p4)">
    <rect x="1216" y="110" width="340" height="760" fill="url(#nav)"/>
    <path d="M1170 735C1268 672 1301 616 1325 538C1356 438 1394 374 1452 293C1491 239 1542 200 1590 170" fill="none" stroke="#40534e" stroke-width="40" stroke-linecap="round"/>
    <path d="M1170 735C1268 672 1301 616 1325 538C1356 438 1394 374 1452 293C1491 239 1542 200 1590 170" fill="none" stroke="#80e1bb" stroke-width="10" stroke-linecap="round"/>
    <rect x="1232" y="132" width="308" height="128" rx="8" fill="#16211f" filter="url(#shadow)"/>
    <circle cx="1280" cy="196" r="36" fill="#2b3b37"/>
    <path d="M1266 218v-28c0-11 8-18 19-18h16M1293 160l14 12-14 12" fill="none" stroke="#71e0b5" stroke-width="7" stroke-linecap="round" stroke-linejoin="round"/>
    <text x="1328" y="184" font-family="sans-serif" font-size="21" font-weight="700" fill="#fff">环城西路</text>
    <text x="1328" y="211" font-family="sans-serif" font-size="14" font-weight="700" fill="#71e0b5">280 米</text>
    <text x="1382" y="211" font-family="sans-serif" font-size="13" fill="#b8ccc5">后右转</text>
    <rect x="1232" y="276" width="174" height="36" rx="6" fill="#fff" opacity=".95" filter="url(#soft)"/>
    <text x="1246" y="299" font-family="sans-serif" font-size="12" font-weight="700" fill="#263330">当前：体育场路</text>
    <rect x="1475" y="276" width="65" height="36" rx="6" fill="#fff" opacity=".95" filter="url(#soft)"/>
    <text x="1507" y="299" text-anchor="middle" font-family="sans-serif" font-size="11" font-weight="700" fill="#126b56">GPS</text>
    <circle cx="1375" cy="552" r="13" fill="#fff" stroke="#126b56" stroke-width="5"/>
    <path d="M1375 516l12 43-12-7-12 7z" fill="#126b56"/>
    <rect x="1232" y="665" width="308" height="187" rx="8" fill="#fff" filter="url(#shadow)"/>
    <g font-family="sans-serif" text-anchor="middle">
      <text x="1284" y="704" font-size="21" font-weight="700" fill="#126b56">18 分钟</text>
      <text x="1284" y="722" font-size="10" fill="#7a8582">预计用时</text>
      <line x1="1335" y1="687" x2="1335" y2="724" stroke="#e2e8e5"/>
      <text x="1386" y="704" font-size="16" font-weight="700" fill="#17211f">剩余 7.4 公里</text>
      <text x="1386" y="722" font-size="10" fill="#7a8582">里程</text>
      <line x1="1437" y1="687" x2="1437" y2="724" stroke="#e2e8e5"/>
      <text x="1488" y="704" font-size="18" font-weight="700" fill="#17211f">36</text>
      <text x="1488" y="722" font-size="10" fill="#7a8582">km/h</text>
      <text x="1386" y="746" font-size="10" fill="#6a7572">前方还有 8 个红绿灯</text>
    </g>
    <line x1="1248" y1="760" x2="1524" y2="760" stroke="#e8ecea"/>
    <g font-family="sans-serif" font-size="12" text-anchor="middle">
      <rect x="1248" y="776" width="84" height="45" rx="7" fill="#edf3f0"/>
      <text x="1290" y="804" fill="#263330" font-weight="700">⌖  总览</text>
      <rect x="1344" y="776" width="84" height="45" rx="7" fill="#edf3f0"/>
      <text x="1386" y="804" fill="#263330" font-weight="700">↑  回正</text>
      <rect x="1440" y="776" width="84" height="45" rx="7" fill="#f7e7e5"/>
      <text x="1482" y="804" fill="#b43e36" font-weight="700">■  结束</text>
    </g>
  </g>

  <g font-family="sans-serif" text-anchor="middle">
    <text x="216" y="925" font-size="17" font-weight="700" fill="#17211f">地图主页</text>
    <text x="216" y="949" font-size="12" fill="#6d7874">搜索在上 · 工具靠右 · 底栏悬浮</text>
    <text x="606" y="925" font-size="17" font-weight="700" fill="#17211f">地点详情</text>
    <text x="606" y="949" font-size="12" fill="#6d7874">信息、收藏与路线入口集中呈现</text>
    <text x="996" y="925" font-size="17" font-weight="700" fill="#17211f">路线规划</text>
    <text x="996" y="949" font-size="12" fill="#6d7874">紧凑起终点 · 横向方案比较</text>
    <text x="1386" y="925" font-size="17" font-weight="700" fill="#17211f">实时导航</text>
    <text x="1386" y="949" font-size="12" fill="#6d7874">高对比指令 · 驾驶信息分层</text>
  </g>
</svg>