<svg xmlns="http://www.w3.org/2000/svg" width="1600" height="1000" viewBox="0 0 1600 1000">
  <defs>
    <filter id="shadow" x="-30%" y="-30%" width="160%" height="180%">
      <feDropShadow dx="0" dy="12" stdDeviation="18" flood-color="#18312b" flood-opacity=".18"/>
    </filter>
    <filter id="soft" x="-30%" y="-30%" width="160%" height="180%">
      <feDropShadow dx="0" dy="6" stdDeviation="10" flood-color="#18312b" flood-opacity=".14"/>
    </filter>
    <clipPath id="p1"><rect x="46" y="110" width="340" height="760" rx="38"/></clipPath>
    <clipPath id="p2"><rect x="436" y="110" width="340" height="760" rx="38"/></clipPath>
    <clipPath id="p3"><rect x="826" y="110" width="340" height="760" rx="38"/></clipPath>
    <clipPath id="p4"><rect x="1216" y="110" width="340" height="760" rx="38"/></clipPath>
    <pattern id="blocks" width="100" height="82" patternUnits="userSpaceOnUse">
      <rect width="100" height="82" fill="#edf2f8"/>
      <rect x="7" y="8" width="34" height="27" rx="4" fill="#dce5f0"/>
      <rect x="57" y="11" width="35" height="42" rx="4" fill="#e1e8f2"/>
      <rect x="10" y="52" width="42" height="23" rx="4" fill="#d7e2ee"/>
    </pattern>
    <linearGradient id="nav" x1="0" y1="0" x2="0" y2="1">
      <stop offset="0" stop-color="#1d304d"/>
      <stop offset="1" stop-color="#111d30"/>
    </linearGradient>
  </defs>

  <rect width="1600" height="1000" fill="#f4f7fb"/>
  <path d="M0 0H1600V55C1310 115 930 4 615 55C340 100 154 86 0 42Z" fill="#dce8f8"/>
  <text x="54" y="60" font-family="sans-serif" font-size="28" font-weight="700" fill="#172033">SimpleMap</text>
  <text x="232" y="60" font-family="sans-serif" font-size="15" fill="#66758b">真实程序 UI · 地图 / 地点 / 路线 / 导航</text>

  <!-- Phone frames -->
  <g fill="#13211e" filter="url(#shadow)">
    <rect x="32" y="96" width="368" height="788" rx="49"/>
    <rect x="422" y="96" width="368" height="788" rx="49"/>
    <rect x="812" y="96" width="368" height="788" rx="49"/>
    <rect x="1202" y="96" width="368" height="788" rx="49"/>
  </g>
  <g fill="#08100e">
    <rect x="164" y="104" width="104" height="20" rx="10"/>
    <rect x="554" y="104" width="104" height="20" rx="10"/>
    <rect x="944" y="104" width="104" height="20" rx="10"/>
    <rect x="1334" y="104" width="104" height="20" rx="10"/>
  </g>

  <!-- Screen 1: map -->
  <g clip-path="url(#p1)">
    <rect x="46" y="110" width="340" height="760" fill="url(#blocks)"/>
    <path d="M30 650C105 580 129 477 208 410C266 361 335 336 409 246" fill="none" stroke="#fff" stroke-width="32"/>
    <path d="M30 650C105 580 129 477 208 410C266 361 335 336 409 246" fill="none" stroke="#c8d2cc" stroke-width="2"/>
    <path d="M20 281C122 307 185 279 250 236C310 196 349 180 415 183" fill="none" stroke="#fff" stroke-width="18"/>
    <path d="M20 281C122 307 185 279 250 236C310 196 349 180 415 183" fill="none" stroke="#cad4ce" stroke-width="2"/>
    <path d="M75 153C104 227 120 330 93 429C73 503 69 590 93 698" fill="none" stroke="#fff" stroke-width="13"/>
    <rect x="68" y="148" width="296" height="58" rx="8" fill="#fff" filter="url(#soft)"/>
    <circle cx="94" cy="177" r="9" fill="none" stroke="#263330" stroke-width="2"/>
    <path d="M101 184l8 8" stroke="#263330" stroke-width="2" stroke-linecap="round"/>
    <text x="120" y="183" font-family="sans-serif" font-size="15" fill="#64706d">搜索地点、公交或路线</text>
    <circle cx="338" cy="177" r="18" fill="#e4f2ea"/>
    <text x="338" y="182" text-anchor="middle" font-family="sans-serif" font-size="13" font-weight="700" fill="#1769e0">S</text>
    <circle cx="215" cy="430" r="18" fill="#fff" stroke="#1769e0" stroke-width="5"/>
    <circle cx="215" cy="430" r="7" fill="#1769e0"/>
    <g filter="url(#soft)">
      <circle cx="344" cy="603" r="24" fill="#fff"/>
      <circle cx="344" cy="662" r="24" fill="#fff"/>
      <circle cx="344" cy="721" r="24" fill="#1769e0"/>
    </g>
    <path d="M334 603h20M344 593v20" stroke="#263330" stroke-width="2.4" stroke-linecap="round"/>
    <path d="M334 662h20" stroke="#263330" stroke-width="2.4" stroke-linecap="round"/>
    <path d="M344 710l7 17-7-4-7 4z" fill="#fff"/>
    <rect x="64" y="785" width="304" height="68" rx="8" fill="#fff" filter="url(#soft)"/>
    <g font-family="sans-serif" font-size="12" text-anchor="middle">
      <path d="M96 802l9-4 9 4v12l-9 4-9-4z" fill="none" stroke="#1769e0" stroke-width="1.5"/><text x="105" y="837" fill="#1769e0" font-weight="700">地图</text>
      <path d="M172 815c13-1 3-13 16-14" fill="none" stroke="#66758b" stroke-width="1.5"/><circle cx="171" cy="815" r="2" fill="none" stroke="#66758b"/><circle cx="189" cy="800" r="2" fill="none" stroke="#66758b"/><text x="180" y="837" fill="#66758b">路线</text>
      <circle cx="255" cy="807" r="9" fill="none" stroke="#66758b" stroke-width="1.5"/><path d="M255 807v-6m0 6l5 2" stroke="#66758b" stroke-width="1.5"/><text x="255" y="837" fill="#66758b">行程</text>
      <circle cx="330" cy="802" r="4" fill="none" stroke="#66758b"/><path d="M322 816c1-8 15-8 16 0" fill="none" stroke="#66758b"/><text x="330" y="837" fill="#66758b">我的</text>
    </g>
  </g>

  <!-- Screen 2: place details -->
  <g clip-path="url(#p2)">
    <rect x="436" y="110" width="340" height="760" fill="url(#blocks)"/>
    <path d="M410 623C506 548 565 490 614 379C649 302 713 253 805 232" fill="none" stroke="#fff" stroke-width="28"/>
    <path d="M410 623C506 548 565 490 614 379C649 302 713 253 805 232" fill="none" stroke="#c9d3cd" stroke-width="2"/>
    <rect x="458" y="148" width="296" height="58" rx="8" fill="#fff" filter="url(#soft)"/>
    <circle cx="484" cy="177" r="9" fill="none" stroke="#263330" stroke-width="2"/>
    <path d="M491 184l8 8" stroke="#263330" stroke-width="2"/>
    <text x="510" y="182" font-family="sans-serif" font-size="15" fill="#64706d">西湖风景名胜区</text>
    <path d="M612 339c-18 0-30 14-30 30 0 21 30 51 30 51s30-30 30-51c0-16-12-30-30-30z" fill="#d94b41"/>
    <circle cx="612" cy="368" r="9" fill="#fff"/>
    <rect x="454" y="555" width="304" height="214" rx="8" fill="#fff" filter="url(#shadow)"/>
    <text x="474" y="587" font-family="sans-serif" font-size="21" font-weight="700" fill="#172033">西湖风景名胜区</text>
    <text x="474" y="612" font-family="sans-serif" font-size="13" fill="#66758b">龙井路 1 号 · 距你 2.4 公里</text>
    <line x1="474" y1="629" x2="738" y2="629" stroke="#e1e7ef"/>
    <g font-family="sans-serif" font-size="12">
      <text x="474" y="654" fill="#7b8582">分类</text><text x="528" y="654" fill="#354158">风景名胜 · 公园广场</text>
      <text x="474" y="678" fill="#7b8582">开放</text><text x="528" y="678" fill="#1769e0">全天开放</text>
      <text x="474" y="702" fill="#7b8582">坐标</text><text x="528" y="702" fill="#354158">30.25110, 120.12690</text>
    </g>
    <rect x="474" y="719" width="118" height="38" rx="8" fill="#fff" stroke="#aab7c8"/>
    <path d="M493 737l4-8 4 8 8 1-6 6 2 8-8-4-8 4 2-8-6-6z" fill="none" stroke="#1769e0" stroke-width="1.5"/>
    <text x="542" y="743" text-anchor="middle" font-family="sans-serif" font-size="13" fill="#1769e0">收藏</text>
    <rect x="602" y="719" width="136" height="38" rx="8" fill="#1769e0"/>
    <path d="M621 745l8-13 8 13M629 732v18" fill="none" stroke="#fff" stroke-width="2" stroke-linecap="round"/>
    <text x="680" y="743" text-anchor="middle" font-family="sans-serif" font-size="13" font-weight="700" fill="#fff">去这里</text>
    <rect x="454" y="786" width="304" height="67" rx="8" fill="#fff" filter="url(#soft)"/>
    <g font-family="sans-serif" font-size="11" text-anchor="middle" fill="#66758b">
      <path d="M486 803l8-3 8 3v10l-8 3-8-3z" fill="none" stroke="#1769e0" stroke-width="1.4"/><text x="494" y="839" fill="#1769e0" font-weight="700">地图</text>
      <path d="M558 815c12-1 3-12 15-13" fill="none" stroke="#66758b" stroke-width="1.4"/><circle cx="557" cy="815" r="2" fill="none" stroke="#66758b"/><circle cx="574" cy="801" r="2" fill="none" stroke="#66758b"/><text x="566" y="839">路线</text>
      <circle cx="638" cy="807" r="8" fill="none" stroke="#66758b" stroke-width="1.4"/><path d="M638 807v-5m0 5l4 2" stroke="#66758b" stroke-width="1.4"/><text x="638" y="839">行程</text>
      <circle cx="710" cy="802" r="4" fill="none" stroke="#66758b"/><path d="M703 815c1-7 13-7 14 0" fill="none" stroke="#66758b"/><text x="710" y="839">我的</text>
    </g>
  </g>

  <!-- Screen 3: planner -->
  <g clip-path="url(#p3)">
    <rect x="826" y="110" width="340" height="760" fill="url(#blocks)"/>
    <path d="M802 720C866 650 915 602 983 535C1040 478 1112 430 1192 377" fill="none" stroke="#fff" stroke-width="27" stroke-linecap="round"/>
    <path d="M802 720C866 650 915 602 983 535" fill="none" stroke="#39a86b" stroke-width="8" stroke-linecap="round"/>
    <path d="M983 535C1040 478 1072 456 1111 431" fill="none" stroke="#f0b43c" stroke-width="8" stroke-linecap="round"/>
    <path d="M1111 431C1135 414 1162 395 1192 377" fill="none" stroke="#de5b4f" stroke-width="8" stroke-linecap="round"/>
    <rect x="838" y="132" width="316" height="234" rx="8" fill="#fff" filter="url(#soft)"/>
    <circle cx="856" cy="158" r="5" fill="#1769e0"/>
    <line x1="856" y1="164" x2="856" y2="242" stroke="#d6deea" stroke-width="2"/>
    <circle cx="856" cy="248" r="5" fill="#fff" stroke="#e95d45" stroke-width="2"/>
    <rect x="872" y="141" width="212" height="38" rx="8" fill="#f5f7fa"/>
    <text x="886" y="165" font-family="sans-serif" font-size="13" fill="#243b5a">杭州东站</text>
    <rect x="872" y="185" width="212" height="38" rx="8" fill="#f5f7fa"/>
    <text x="886" y="209" font-family="sans-serif" font-size="13" fill="#243b5a">西湖文化广场</text>
    <rect x="872" y="229" width="212" height="38" rx="8" fill="#f5f7fa"/>
    <text x="886" y="253" font-family="sans-serif" font-size="13" fill="#243b5a">西湖风景名胜区</text>
    <text x="1119" y="206" text-anchor="middle" font-family="sans-serif" font-size="12" font-weight="700" fill="#1769e0">交换</text>
    <rect x="852" y="282" width="288" height="40" rx="8" fill="#eef3fa"/>
    <rect x="855" y="285" width="69" height="34" rx="6" fill="#fff" filter="url(#soft)"/>
    <g font-family="sans-serif" font-size="12" text-anchor="middle">
      <text x="889" y="307" fill="#1769e0" font-weight="700">驾车</text>
      <text x="961" y="307" fill="#66758b">公交</text>
      <text x="1033" y="307" fill="#66758b">骑行</text>
      <text x="1105" y="307" fill="#66758b">步行</text>
    </g>
    <text x="852" y="350" font-family="sans-serif" font-size="12" font-weight="700" fill="#1769e0">规划偏好  展开</text>
    <circle cx="982" cy="457" r="10" fill="#fff" stroke="#1769e0" stroke-width="4"/>
    <rect x="838" y="584" width="316" height="184" rx="8" fill="#fff" filter="url(#shadow)"/>
    <text x="852" y="608" font-family="sans-serif" font-size="12" fill="#53617a">推荐路线 · 实时路况</text>
    <rect x="850" y="620" width="290" height="82" rx="8" fill="#f1f6ff" stroke="#1769e0" stroke-width="2"/>
    <text x="864" y="647" font-family="sans-serif" font-size="18" font-weight="700" fill="#1769e0">28 分钟</text>
    <rect x="991" y="631" width="43" height="18" rx="4" fill="#1769e0"/>
    <text x="1012" y="644" text-anchor="middle" font-family="sans-serif" font-size="9" font-weight="700" fill="#fff">推荐</text>
    <text x="864" y="671" font-family="sans-serif" font-size="11" fill="#53617a">躲避拥堵 · 红绿灯较少</text>
    <text x="864" y="693" font-family="sans-serif" font-size="12" font-weight="700" fill="#354158">13.6 公里</text>
    <text x="852" y="719" font-family="sans-serif" font-size="11" fill="#59677d">天城路 · 秋涛北路 · 环城西路</text>
    <rect x="852" y="727" width="288" height="32" rx="8" fill="#172033"/>
    <text x="996" y="748" text-anchor="middle" font-family="sans-serif" font-size="13" font-weight="700" fill="#fff">开始导航</text>
  </g>

  <!-- Screen 4: navigation -->
  <g clip-path="url(#p4)">
    <rect x="1216" y="110" width="340" height="760" fill="url(#nav)"/>
    <path d="M1170 735C1268 672 1301 616 1325 538C1356 438 1394 374 1452 293C1491 239 1542 200 1590 170" fill="none" stroke="#40506a" stroke-width="40" stroke-linecap="round"/>
    <path d="M1170 735C1268 672 1301 616 1325 538C1356 438 1394 374 1452 293C1491 239 1542 200 1590 170" fill="none" stroke="#5ba6ff" stroke-width="10" stroke-linecap="round"/>
    <rect x="1232" y="132" width="308" height="136" rx="8" fill="#162438" filter="url(#shadow)"/>
    <circle cx="1275" cy="191" r="32" fill="#263650"/>
    <path d="M1263 211v-25c0-10 7-16 17-16h15M1288 159l13 11-13 11" fill="none" stroke="#75b8ff" stroke-width="6" stroke-linecap="round" stroke-linejoin="round"/>
    <text x="1318" y="184" font-family="sans-serif" font-size="21" font-weight="700" fill="#fff">环城西路</text>
    <text x="1320" y="211" font-family="sans-serif" font-size="14" font-weight="700" fill="#75b8ff">280 米</text>
    <text x="1374" y="211" font-family="sans-serif" font-size="13" fill="#c5d2e5">后右转</text>
    <rect x="1482" y="169" width="45" height="27" rx="5" fill="#27405f"/>
    <text x="1504" y="187" text-anchor="middle" font-family="sans-serif" font-size="10" font-weight="700" fill="#8ec7ff">GPS</text>
    <line x1="1232" y1="238" x2="1540" y2="238" stroke="#405574"/>
    <text x="1246" y="258" font-family="sans-serif" font-size="10" font-weight="700" fill="#dce9e5">路口放大图</text><text x="1525" y="258" text-anchor="end" font-family="sans-serif" font-size="9" font-weight="700" fill="#75b8ff">展开</text>
    <rect x="1232" y="282" width="174" height="34" rx="6" fill="#fff" opacity=".95" filter="url(#soft)"/>
    <text x="1246" y="304" font-family="sans-serif" font-size="12" font-weight="700" fill="#263330">当前：体育场路</text>
    <circle cx="1258" cy="333" r="29" fill="#fff" filter="url(#soft)"/>
    <text x="1258" y="336" text-anchor="middle" font-family="sans-serif" font-size="18" font-weight="700" fill="#172033">36</text>
    <text x="1258" y="349" text-anchor="middle" font-family="sans-serif" font-size="8" fill="#66758b">km/h</text>
    <circle cx="1282" cy="308" r="16" fill="#fff" stroke="#d83a3a" stroke-width="3"/>
    <text x="1282" y="312" text-anchor="middle" font-family="sans-serif" font-size="10" font-weight="700" fill="#202a3a">60</text>
    <rect x="1232" y="370" width="177" height="31" rx="6" fill="#fff" opacity=".95" filter="url(#soft)"/>
    <text x="1242" y="390" font-family="sans-serif" font-size="10" font-weight="700" fill="#33435a">区间测速 · 均速 52</text>
    <circle cx="1375" cy="552" r="13" fill="#fff" stroke="#1769e0" stroke-width="5"/>
    <path d="M1375 516l12 43-12-7-12 7z" fill="#1769e0"/>
    <rect x="1381" y="678" width="159" height="42" rx="7" fill="#162438" filter="url(#soft)"/>
    <text x="1393" y="696" font-family="sans-serif" font-size="10" font-weight="700" fill="#fff">临安服务区 12.0 公里</text>
    <text x="1393" y="711" font-family="sans-serif" font-size="9" fill="#b9c8dd">约 15 分钟后到达</text>
    <rect x="1381" y="727" width="159" height="42" rx="7" fill="#162438" filter="url(#soft)"/>
    <text x="1393" y="745" font-family="sans-serif" font-size="10" font-weight="700" fill="#fff">龙岗服务区 31.0 公里</text>
    <text x="1393" y="760" font-family="sans-serif" font-size="9" fill="#b9c8dd">约 35 分钟后到达</text>
    <rect x="1232" y="774" width="308" height="62" rx="8" fill="#fff" filter="url(#shadow)"/>
    <g font-family="sans-serif">
      <text x="1248" y="808" font-size="19" font-weight="700" fill="#1769e0">18 分钟</text>
      <text x="1348" y="808" font-size="15" font-weight="700" fill="#172033">剩余 7.4 公里</text>
      <text x="1480" y="808" font-size="11" fill="#66758b">8 个灯</text>
    </g>
  </g>

  <g font-family="sans-serif" text-anchor="middle">
    <text x="216" y="925" font-size="17" font-weight="700" fill="#17211f">地图主页</text>
    <text x="216" y="949" font-size="12" fill="#6d7874">搜索在上 · 工具靠右 · 底栏悬浮</text>
    <text x="606" y="925" font-size="17" font-weight="700" fill="#17211f">地点详情</text>
    <text x="606" y="949" font-size="12" fill="#6d7874">信息、收藏与路线入口集中呈现</text>
    <text x="996" y="925" font-size="17" font-weight="700" fill="#17211f">路线规划</text>
    <text x="996" y="949" font-size="12" fill="#6d7874">途经点有序 · 规划偏好默认收起</text>
    <text x="1386" y="925" font-size="17" font-weight="700" fill="#17211f">实时导航</text>
    <text x="1386" y="949" font-size="12" fill="#6d7874">路口图同卡收纳 · 操作按需显示</text>
  </g>
</svg>