<svg xmlns="http://www.w3.org/2000/svg" width="1600" height="1000" viewBox="0 0 1600 1000">
  <defs>
    <filter id="shadow" x="-30%" y="-30%" width="160%" height="180%">
      <feDropShadow dx="0" dy="12" stdDeviation="18" flood-color="#18312b" flood-opacity=".18"/>
    </filter>
    <filter id="soft" x="-30%" y="-30%" width="160%" height="180%">
      <feDropShadow dx="0" dy="6" stdDeviation="10" flood-color="#18312b" flood-opacity=".14"/>
    </filter>
    <clipPath id="p1"><rect x="46" y="110" width="340" height="760" rx="38"/></clipPath>
    <clipPath id="p2"><rect x="436" y="110" width="340" height="760" rx="38"/></clipPath>
    <clipPath id="p3"><rect x="826" y="110" width="340" height="760" rx="38"/></clipPath>
    <clipPath id="p4"><rect x="1216" y="110" width="340" height="760" rx="38"/></clipPath>
    <pattern id="blocks" width="100" height="82" patternUnits="userSpaceOnUse">
      <rect width="100" height="82" fill="#eaf0eb"/>
      <rect x="7" y="8" width="34" height="27" rx="4" fill="#d8e3da"/>
      <rect x="57" y="11" width="35" height="42" rx="4" fill="#dce7df"/>
      <rect x="10" y="52" width="42" height="23" rx="4" fill="#d5e1d7"/>
    </pattern>
    <linearGradient id="nav" x1="0" y1="0" x2="0" y2="1">
      <stop offset="0" stop-color="#183d35"/>
      <stop offset="1" stop-color="#102b26"/>
    </linearGradient>
  </defs>

  <rect width="1600" height="1000" fill="#f3f6f2"/>
  <path d="M0 0H1600V55C1310 115 930 4 615 55C340 100 154 86 0 42Z" fill="#dce9df"/>
  <text x="54" y="60" font-family="sans-serif" font-size="28" font-weight="700" fill="#17211f">SimpleMap</text>
  <text x="232" y="60" font-family="sans-serif" font-size="15" fill="#5f6b68">核心体验视觉稿 · 地图 / 地点 / 路线 / 导航</text>

  <!-- Phone frames -->
  <g fill="#13211e" filter="url(#shadow)">
    <rect x="32" y="96" width="368" height="788" rx="49"/>
    <rect x="422" y="96" width="368" height="788" rx="49"/>
    <rect x="812" y="96" width="368" height="788" rx="49"/>
    <rect x="1202" y="96" width="368" height="788" rx="49"/>
  </g>
  <g fill="#08100e">
    <rect x="164" y="104" width="104" height="20" rx="10"/>
    <rect x="554" y="104" width="104" height="20" rx="10"/>
    <rect x="944" y="104" width="104" height="20" rx="10"/>
    <rect x="1334" y="104" width="104" height="20" rx="10"/>
  </g>

  <!-- Screen 1: map -->
  <g clip-path="url(#p1)">
    <rect x="46" y="110" width="340" height="760" fill="url(#blocks)"/>
    <path d="M30 650C105 580 129 477 208 410C266 361 335 336 409 246" fill="none" stroke="#fff" stroke-width="32"/>
    <path d="M30 650C105 580 129 477 208 410C266 361 335 336 409 246" fill="none" stroke="#c8d2cc" stroke-width="2"/>
    <path d="M20 281C122 307 185 279 250 236C310 196 349 180 415 183" fill="none" stroke="#fff" stroke-width="18"/>
    <path d="M20 281C122 307 185 279 250 236C310 196 349 180 415 183" fill="none" stroke="#cad4ce" stroke-width="2"/>
    <path d="M75 153C104 227 120 330 93 429C73 503 69 590 93 698" fill="none" stroke="#fff" stroke-width="13"/>
    <rect x="68" y="148" width="296" height="58" rx="8" fill="#fff" filter="url(#soft)"/>
    <circle cx="94" cy="177" r="9" fill="none" stroke="#263330" stroke-width="2"/>
    <path d="M101 184l8 8" stroke="#263330" stroke-width="2" stroke-linecap="round"/>
    <text x="120" y="183" font-family="sans-serif" font-size="15" fill="#64706d">搜索地点、公交或路线</text>
    <circle cx="338" cy="177" r="18" fill="#e4f2ea"/>
    <text x="338" y="182" text-anchor="middle" font-family="sans-serif" font-size="13" font-weight="700" fill="#126b56">S</text>
    <circle cx="215" cy="430" r="18" fill="#fff" stroke="#126b56" stroke-width="5"/>
    <circle cx="215" cy="430" r="7" fill="#126b56"/>
    <g filter="url(#soft)">
      <circle cx="344" cy="603" r="24" fill="#fff"/>
      <circle cx="344" cy="662" r="24" fill="#fff"/>
      <circle cx="344" cy="721" r="24" fill="#126b56"/>
    </g>
    <path d="M334 603h20M344 593v20" stroke="#263330" stroke-width="2.4" stroke-linecap="round"/>
    <path d="M334 662h20" stroke="#263330" stroke-width="2.4" stroke-linecap="round"/>
    <path d="M344 710l7 17-7-4-7 4z" fill="#fff"/>
    <rect x="64" y="785" width="304" height="68" rx="8" fill="#fff" filter="url(#soft)"/>
    <g font-family="sans-serif" font-size="12" text-anchor="middle">
      <circle cx="105" cy="807" r="4" fill="#126b56"/><text x="105" y="832" fill="#126b56" font-weight="700">地图</text>
      <circle cx="180" cy="807" r="4" fill="#d5dcd8"/><text x="180" y="832" fill="#68736f">路线</text>
      <circle cx="255" cy="807" r="4" fill="#d5dcd8"/><text x="255" y="832" fill="#68736f">行程</text>
      <circle cx="330" cy="807" r="4" fill="#d5dcd8"/><text x="330" y="832" fill="#68736f">我的</text>
    </g>
  </g>

  <!-- Screen 2: place details -->
  <g clip-path="url(#p2)">
    <rect x="436" y="110" width="340" height="760" fill="url(#blocks)"/>
    <path d="M410 623C506 548 565 490 614 379C649 302 713 253 805 232" fill="none" stroke="#fff" stroke-width="28"/>
    <path d="M410 623C506 548 565 490 614 379C649 302 713 253 805 232" fill="none" stroke="#c9d3cd" stroke-width="2"/>
    <rect x="458" y="148" width="296" height="58" rx="8" fill="#fff" filter="url(#soft)"/>
    <circle cx="484" cy="177" r="9" fill="none" stroke="#263330" stroke-width="2"/>
    <path d="M491 184l8 8" stroke="#263330" stroke-width="2"/>
    <text x="510" y="182" font-family="sans-serif" font-size="15" fill="#64706d">西湖风景名胜区</text>
    <path d="M612 339c-18 0-30 14-30 30 0 21 30 51 30 51s30-30 30-51c0-16-12-30-30-30z" fill="#d94b41"/>
    <circle cx="612" cy="368" r="9" fill="#fff"/>
    <rect x="454" y="543" width="304" height="224" rx="8" fill="#fff" filter="url(#shadow)"/>
    <text x="474" y="578" font-family="sans-serif" font-size="21" font-weight="700" fill="#17211f">西湖风景名胜区</text>
    <text x="474" y="603" font-family="sans-serif" font-size="13" fill="#60706b">龙井路 1 号 · 距你 2.4 公里</text>
    <line x1="474" y1="622" x2="738" y2="622" stroke="#e5ebe7"/>
    <g font-family="sans-serif" font-size="12">
      <text x="474" y="649" fill="#7b8582">分类</text><text x="528" y="649" fill="#35413e">风景名胜 · 公园广场</text>
      <text x="474" y="674" fill="#7b8582">开放</text><text x="528" y="674" fill="#126b56">全天开放</text>
      <text x="474" y="699" fill="#7b8582">坐标</text><text x="528" y="699" fill="#35413e">30.25110, 120.12690</text>
    </g>
    <rect x="474" y="718" width="118" height="38" rx="8" fill="#fff" stroke="#aab7b2"/>
    <path d="M493 736l4-8 4 8 8 1-6 6 2 8-8-4-8 4 2-8-6-6z" fill="none" stroke="#126b56" stroke-width="1.5"/>
    <text x="542" y="742" text-anchor="middle" font-family="sans-serif" font-size="13" fill="#126b56">收藏</text>
    <rect x="602" y="718" width="136" height="38" rx="8" fill="#126b56"/>
    <path d="M621 744l8-13 8 13M629 731v18" fill="none" stroke="#fff" stroke-width="2" stroke-linecap="round"/>
    <text x="680" y="742" text-anchor="middle" font-family="sans-serif" font-size="13" font-weight="700" fill="#fff">去这里</text>
    <rect x="454" y="789" width="304" height="64" rx="8" fill="#fff" filter="url(#soft)"/>
  </g>

  <!-- Screen 3: planner -->
  <g clip-path="url(#p3)">
    <rect x="826" y="110" width="340" height="760" fill="url(#blocks)"/>
    <path d="M804 733C872 659 903 568 986 508C1053 459 1100 359 1194 321" fill="none" stroke="#126b56" stroke-width="10" stroke-linecap="round"/>
    <path d="M804 733C872 659 903 568 986 508C1053 459 1100 359 1194 321" fill="none" stroke="#7bd0b1" stroke-width="3" stroke-linecap="round"/>
    <rect x="842" y="137" width="308" height="550" rx="8" fill="#fff" filter="url(#shadow)"/>
    <text x="862" y="174" font-family="sans-serif" font-size="21" font-weight="700" fill="#17211f">路线规划</text>
    <rect x="862" y="194" width="268" height="58" rx="8" fill="#fafcfb" stroke="#c9d3cf"/>
    <circle cx="880" cy="223" r="6" fill="#126b56"/>
    <text x="897" y="216" font-family="sans-serif" font-size="10" fill="#7b8582">起点</text>
    <text x="897" y="237" font-family="sans-serif" font-size="14" fill="#263330">杭州东站</text>
    <rect x="862" y="262" width="268" height="58" rx="8" fill="#fafcfb" stroke="#c9d3cf"/>
    <path d="M880 276c-6 0-10 5-10 10 0 7 10 17 10 17s10-10 10-17c0-5-4-10-10-10z" fill="#d94b41"/>
    <text x="897" y="284" font-family="sans-serif" font-size="10" fill="#7b8582">终点</text>
    <text x="897" y="305" font-family="sans-serif" font-size="14" fill="#263330">西湖风景名胜区</text>
    <g font-family="sans-serif" font-size="12" text-anchor="middle">
      <rect x="862" y="340" width="62" height="36" rx="8" fill="#126b56"/><text x="893" y="363" fill="#fff" font-weight="700">驾车</text>
      <rect x="930" y="340" width="62" height="36" rx="8" fill="#fff" stroke="#bec9c4"/><text x="961" y="363" fill="#52615d">公交</text>
      <rect x="998" y="340" width="62" height="36" rx="8" fill="#fff" stroke="#bec9c4"/><text x="1029" y="363" fill="#52615d">骑行</text>
      <rect x="1068" y="340" width="62" height="36" rx="8" fill="#fff" stroke="#bec9c4"/><text x="1099" y="363" fill="#52615d">步行</text>
    </g>
    <text x="862" y="409" font-family="sans-serif" font-size="12" font-weight="700" fill="#7b8582">推荐方案</text>
    <rect x="858" y="423" width="276" height="86" rx="8" fill="#edf7f2" stroke="#126b56" stroke-width="1.5"/>
    <text x="875" y="453" font-family="sans-serif" font-size="18" font-weight="700" fill="#126b56">28 分钟</text>
    <text x="1115" y="453" text-anchor="end" font-family="sans-serif" font-size="13" fill="#35413e">13.6 公里</text>
    <text x="875" y="479" font-family="sans-serif" font-size="12" fill="#60706b">躲避拥堵 · 12 个红绿灯</text>
    <text x="1115" y="479" text-anchor="end" font-family="sans-serif" font-size="12" fill="#7b8582">约 ¥8.0</text>
    <rect x="862" y="520" width="268" height="64" rx="8" fill="#fff" stroke="#e1e7e3"/>
    <text x="875" y="548" font-family="sans-serif" font-size="16" font-weight="700" fill="#263330">34 分钟</text>
    <text x="1115" y="548" text-anchor="end" font-family="sans-serif" font-size="13" fill="#35413e">11.8 公里</text>
    <text x="875" y="570" font-family="sans-serif" font-size="12" fill="#697572">距离较短 · 红绿灯较多</text>
    <rect x="862" y="605" width="268" height="46" rx="8" fill="#17211f"/>
    <text x="996" y="634" text-anchor="middle" font-family="sans-serif" font-size="14" font-weight="700" fill="#fff">开始导航</text>
    <rect x="844" y="790" width="304" height="63" rx="8" fill="#fff" filter="url(#soft)"/>
  </g>

  <!-- Screen 4: navigation -->
  <g clip-path="url(#p4)">
    <rect x="1216" y="110" width="340" height="760" fill="url(#nav)"/>
    <path d="M1170 735C1268 672 1301 616 1325 538C1356 438 1394 374 1452 293C1491 239 1542 200 1590 170" fill="none" stroke="#40534e" stroke-width="40" stroke-linecap="round"/>
    <path d="M1170 735C1268 672 1301 616 1325 538C1356 438 1394 374 1452 293C1491 239 1542 200 1590 170" fill="none" stroke="#80e1bb" stroke-width="10" stroke-linecap="round"/>
    <rect x="1232" y="132" width="308" height="138" rx="8" fill="#f9fcfa" filter="url(#shadow)"/>
    <path d="M1262 217v-31c0-11 9-20 20-20h38M1310 153l15 13-15 13" fill="none" stroke="#126b56" stroke-width="7" stroke-linecap="round" stroke-linejoin="round"/>
    <text x="1350" y="177" font-family="sans-serif" font-size="13" fill="#60706b">前方 280 米</text>
    <text x="1350" y="211" font-family="sans-serif" font-size="23" font-weight="700" fill="#17211f">右转进入环城西路</text>
    <text x="1350" y="239" font-family="sans-serif" font-size="12" fill="#d05449">当前路段轻度拥堵</text>
    <circle cx="1375" cy="552" r="13" fill="#fff" stroke="#126b56" stroke-width="5"/>
    <path d="M1375 516l12 43-12-7-12 7z" fill="#126b56"/>
    <rect x="1232" y="681" width="308" height="171" rx="8" fill="#f9fcfa" filter="url(#shadow)"/>
    <text x="1252" y="720" font-family="sans-serif" font-size="26" font-weight="700" fill="#17211f">18 分钟</text>
    <text x="1520" y="719" text-anchor="end" font-family="sans-serif" font-size="14" fill="#53615d">剩余 7.4 公里</text>
    <text x="1252" y="746" font-family="sans-serif" font-size="13" fill="#68736f">预计 14:32 到达 · 红绿灯 8 个</text>
    <line x1="1252" y1="765" x2="1520" y2="765" stroke="#dfe6e2"/>
    <g font-family="sans-serif" font-size="12" text-anchor="middle">
      <circle cx="1287" cy="802" r="19" fill="#edf3f0"/><path d="M1280 802h14M1287 795v14" stroke="#263330" stroke-width="2"/><text x="1287" y="837" fill="#52615d">总览</text>
      <circle cx="1376" cy="802" r="19" fill="#edf3f0"/><path d="M1369 806l7-16 7 16-7-3z" fill="#263330"/><text x="1376" y="837" fill="#52615d">路况</text>
      <circle cx="1465" cy="802" r="19" fill="#f7e7e5"/><rect x="1458" y="795" width="14" height="14" rx="2" fill="#c94a40"/><text x="1465" y="837" fill="#b43e36">结束</text>
    </g>
  </g>

  <g font-family="sans-serif" text-anchor="middle">
    <text x="216" y="925" font-size="17" font-weight="700" fill="#17211f">地图主页</text>
    <text x="216" y="949" font-size="12" fill="#6d7874">搜索在上 · 工具靠右 · 底栏悬浮</text>
    <text x="606" y="925" font-size="17" font-weight="700" fill="#17211f">地点详情</text>
    <text x="606" y="949" font-size="12" fill="#6d7874">信息、收藏与路线入口集中呈现</text>
    <text x="996" y="925" font-size="17" font-weight="700" fill="#17211f">路线规划</text>
    <text x="996" y="949" font-size="12" fill="#6d7874">多方式比较 · 地图同步画线</text>
    <text x="1386" y="925" font-size="17" font-weight="700" fill="#17211f">实时导航</text>
    <text x="1386" y="949" font-size="12" fill="#6d7874">大指令卡 · 路况 · 到达信息</text>
  </g>
</svg>